<svg xmlns="http://www.w3.org/2000/svg" xmlns:xlink="http://www.w3.org/1999/xlink" width="500" zoomAndPan="magnify" viewBox="0 0 375 374.999991" height="500" preserveAspectRatio="xMidYMid meet" version="1.0"><defs><clipPath id="id1"><path d="M 38.269531 11 L 336.769531 11 L 336.769531 361 L 38.269531 361 Z M 38.269531 11 " clip-rule="nonzero"/></clipPath></defs><path fill="#de2427" d="M 221.785156 264.574219 C 240.621094 259.730469 250.664062 266.730469 258.738281 280.191406 C 260.890625 283.601562 262.683594 286.832031 264.65625 289.707031 C 268.066406 283.960938 270.398438 278.039062 271.117188 272.292969 C 273.089844 255.0625 276.855469 243.394531 279.367188 235.496094 C 280.445312 232.265625 281.160156 229.753906 281.699219 227.597656 C 283.3125 220.238281 281.160156 197.800781 279.1875 191.878906 C 277.753906 187.570312 278.289062 182.1875 278.648438 176.800781 C 279.007812 173.570312 279.1875 170.699219 279.007812 168.183594 C 278.828125 164.953125 276.496094 157.953125 272.910156 148.980469 C 271.832031 146.285156 271.292969 143.414062 271.292969 140.183594 C 271.472656 133.542969 270.039062 126.902344 269.140625 123.667969 C 267.707031 124.746094 266.09375 125.644531 264.476562 126.542969 L 264.296875 126.722656 L 263.941406 126.722656 C 263.761719 126.722656 262.503906 127.078125 260.710938 127.078125 C 257.660156 127.078125 252.996094 126.363281 248.691406 122.953125 C 242.59375 117.925781 239.542969 108.949219 239.722656 96.207031 C 239.722656 95.667969 239.902344 95.128906 240.261719 94.769531 C 240.621094 94.410156 241.15625 94.230469 241.515625 94.050781 C 241.515625 94.050781 248.691406 93.335938 257.660156 88.128906 C 250.84375 78.617188 228.0625 86.511719 228.0625 86.511719 C 230.394531 84.539062 231.828125 80.589844 231.828125 80.589844 C 227.882812 81.308594 216.402344 87.769531 212.992188 89.921875 C 209.585938 91.898438 204.382812 96.746094 204.382812 96.746094 C 205.101562 94.410156 209.585938 86.332031 209.585938 86.332031 C 197.027344 88.308594 186.984375 99.976562 186.984375 99.976562 C 175.503906 87.949219 164.558594 86.332031 164.558594 86.332031 L 169.582031 96.925781 C 168.328125 95.128906 155.589844 87.230469 151.824219 84.539062 C 148.234375 81.847656 141.957031 80.589844 141.957031 80.589844 C 143.210938 84.71875 146.261719 86.871094 146.261719 86.871094 C 146.261719 86.871094 131.371094 82.742188 127.066406 83.101562 C 123.839844 83.28125 118.277344 86.511719 115.765625 87.949219 C 120.429688 90.640625 124.554688 92.257812 127.425781 92.976562 C 130.476562 93.871094 132.269531 94.050781 132.269531 94.050781 C 133.347656 94.050781 134.0625 94.949219 134.0625 96.027344 C 134.242188 108.769531 131.195312 117.746094 125.09375 122.773438 C 120.789062 126.183594 116.125 126.902344 113.074219 126.902344 C 111.101562 126.902344 109.847656 126.722656 109.847656 126.542969 L 109.488281 126.542969 L 109.308594 126.363281 C 107.695312 125.464844 106.257812 124.566406 104.644531 123.488281 C 103.746094 126.722656 102.492188 133.363281 102.492188 140.003906 C 102.492188 143.054688 101.953125 145.925781 100.878906 148.800781 C 97.109375 157.773438 94.957031 164.773438 94.777344 168.003906 C 94.597656 170.519531 94.957031 173.570312 95.136719 176.621094 C 95.675781 182.007812 96.035156 187.390625 94.597656 191.699219 C 92.625 197.621094 90.652344 220.058594 92.085938 227.417969 C 92.625 229.574219 93.34375 232.085938 94.417969 235.316406 C 96.929688 243.214844 100.699219 254.882812 102.671875 272.113281 C 103.386719 278.039062 105.71875 283.78125 109.128906 289.527344 C 111.101562 286.652344 113.074219 283.601562 115.226562 280.011719 C 123.300781 266.550781 133.527344 259.730469 152.183594 264.394531 C 171.015625 269.242188 172.273438 280.910156 172.273438 280.910156 C 169.941406 284.679688 165.816406 285.398438 157.203125 283.960938 C 148.59375 282.527344 133.703125 268.882812 120.070312 291.5 C 118.457031 294.191406 116.664062 296.347656 114.871094 298.140625 C 118.457031 303.167969 122.402344 308.015625 126.351562 312.859375 C 133.347656 321.296875 139.804688 329.375 143.570312 337.09375 C 152.359375 355.042969 185.367188 356.660156 187.164062 356.660156 C 188.957031 356.660156 221.964844 355.042969 230.394531 337.273438 C 234.160156 329.554688 240.621094 321.476562 247.617188 313.039062 C 251.5625 308.195312 255.507812 303.347656 259.097656 298.320312 C 257.300781 296.527344 255.507812 294.371094 253.894531 291.679688 C 240.261719 268.882812 225.371094 282.707031 216.761719 284.140625 C 208.152344 285.578125 204.023438 284.679688 201.691406 281.089844 C 201.691406 280.910156 203.128906 269.421875 221.785156 264.574219 Z M 239.902344 232.265625 C 217.300781 231.007812 200.4375 203.367188 200.4375 203.367188 C 209.226562 202.648438 219.8125 211.085938 230.214844 214.855469 C 240.800781 218.625 254.613281 209.109375 254.613281 209.109375 C 252.636719 211.625 244.925781 215.753906 244.925781 215.753906 C 250.664062 215.753906 261.789062 209.289062 261.789062 209.289062 C 252.28125 221.316406 237.929688 223.46875 237.929688 223.46875 C 252.636719 225.984375 265.734375 213.597656 265.734375 213.597656 C 265.734375 213.597656 262.324219 233.703125 239.902344 232.265625 Z M 263.761719 175.183594 C 259.277344 172.671875 255.507812 173.75 255.507812 173.75 C 264.476562 177.160156 268.785156 188.109375 268.785156 188.109375 C 263.222656 182.007812 251.023438 177.519531 244.386719 182.722656 C 238.289062 187.570312 236.851562 187.390625 236.671875 187.390625 C 249.230469 190.441406 254.074219 200.855469 254.074219 200.855469 C 248.332031 199.058594 243.308594 201.570312 231.648438 202.46875 C 219.988281 203.546875 213.171875 199.777344 213.171875 199.777344 C 213.171875 199.777344 209.765625 201.390625 203.128906 201.035156 C 196.492188 200.496094 191.828125 195.828125 191.828125 195.828125 C 195.414062 195.828125 201.511719 192.597656 203.84375 190.800781 C 206.175781 189.1875 207.972656 188.46875 207.972656 188.46875 L 204.382812 192.058594 C 204.382812 192.058594 204.382812 192.058594 218.554688 187.75 C 232.726562 183.441406 238.289062 173.390625 249.050781 171.238281 C 259.992188 169.261719 263.761719 175.183594 263.761719 175.183594 Z M 194.695312 237.292969 C 195.054688 244.292969 196.847656 249.320312 195.59375 257.574219 C 195.59375 257.574219 194.875 249.140625 193.441406 246.085938 C 192.003906 243.035156 191.109375 234.421875 194.515625 225.445312 C 197.925781 216.46875 195.773438 207.496094 195.773438 207.496094 C 195.773438 207.496094 198.824219 213.597656 197.746094 219.523438 C 197.027344 225.085938 194.335938 230.292969 194.695312 237.292969 Z M 162.046875 130.492188 C 169.402344 137.671875 186.445312 136.59375 187.164062 136.59375 C 187.699219 136.59375 204.742188 137.671875 212.277344 130.492188 C 219.8125 123.132812 229.316406 126.722656 229.316406 126.722656 C 229.316406 126.722656 222.5 126.183594 212.457031 135.15625 C 202.410156 143.953125 187.519531 142.875 187.164062 142.695312 C 186.804688 142.695312 171.914062 143.953125 161.867188 135.15625 C 151.824219 126.183594 145.007812 126.722656 145.007812 126.722656 C 145.007812 126.722656 154.515625 123.308594 162.046875 130.492188 Z M 160.433594 140.003906 C 172.453125 145.925781 186.804688 146.644531 187.164062 146.644531 C 187.519531 146.644531 201.871094 145.925781 213.890625 140.003906 C 226.089844 133.902344 248.152344 134.976562 255.867188 142.515625 C 255.867188 142.515625 239.902344 135.515625 225.730469 143.953125 C 225.730469 143.953125 235.238281 142.875 241.15625 147.363281 C 241.15625 147.363281 232.007812 145.746094 227.882812 148.082031 C 223.757812 150.414062 203.664062 160.824219 187.164062 160.824219 C 170.839844 160.824219 150.746094 150.414062 146.441406 148.082031 C 142.316406 145.746094 133.167969 147.363281 133.167969 147.363281 C 138.90625 142.875 148.59375 143.953125 148.59375 143.953125 C 134.601562 135.515625 118.457031 142.515625 118.457031 142.515625 C 126.171875 134.976562 148.234375 133.902344 160.433594 140.003906 Z M 105.542969 188.289062 C 105.542969 188.289062 110.027344 177.339844 118.816406 173.929688 C 118.816406 173.929688 115.046875 172.851562 110.5625 175.363281 C 110.5625 175.363281 114.152344 169.441406 125.09375 171.59375 C 136.035156 173.75 141.597656 183.800781 155.589844 188.109375 C 169.761719 192.417969 169.761719 192.417969 169.761719 192.417969 L 166.175781 188.828125 C 166.175781 188.828125 167.96875 189.546875 170.300781 191.160156 C 172.632812 192.777344 178.730469 196.1875 182.320312 196.1875 C 182.320312 196.1875 177.835938 200.855469 171.015625 201.390625 C 164.199219 201.929688 160.972656 200.136719 160.972656 200.136719 C 160.972656 200.136719 154.15625 203.90625 142.496094 202.828125 C 130.835938 201.75 125.8125 199.417969 120.070312 201.210938 C 120.070312 201.210938 124.914062 190.800781 137.472656 187.75 C 137.292969 187.75 136.035156 187.929688 129.757812 183.082031 C 123.480469 177.699219 111.101562 182.1875 105.542969 188.289062 Z M 176.398438 219.164062 C 175.503906 213.238281 178.371094 207.136719 178.371094 207.136719 C 178.371094 207.136719 176.21875 216.109375 179.628906 225.085938 C 183.035156 234.0625 182.140625 242.675781 180.703125 245.726562 C 179.269531 248.78125 178.550781 257.214844 178.550781 257.214844 C 177.296875 249.140625 179.089844 243.933594 179.449219 236.933594 C 179.988281 230.292969 177.296875 225.085938 176.398438 219.164062 Z M 134.421875 232.265625 C 111.820312 233.523438 108.769531 213.597656 108.769531 213.597656 C 108.769531 213.597656 122.042969 226.164062 136.574219 223.46875 C 136.574219 223.46875 122.222656 221.136719 112.714844 209.289062 C 112.714844 209.289062 123.660156 215.753906 129.578125 215.753906 C 129.578125 215.753906 121.867188 211.625 119.890625 209.109375 C 119.890625 209.109375 133.703125 218.625 144.289062 214.855469 C 154.871094 211.085938 165.277344 202.648438 174.066406 203.367188 C 174.066406 203.546875 157.023438 231.007812 134.421875 232.265625 Z M 220.527344 320.398438 C 209.046875 338.527344 187.519531 336.734375 187.164062 336.554688 C 186.804688 336.554688 165.457031 338.527344 153.796875 320.398438 C 147.519531 311.066406 143.570312 300.65625 143.570312 300.65625 C 143.570312 300.65625 158.101562 322.914062 170.480469 324.527344 C 182.320312 326.144531 186.804688 325.964844 187.164062 325.785156 C 187.519531 325.785156 192.003906 325.964844 203.84375 324.527344 C 216.222656 322.914062 230.753906 300.65625 230.753906 300.65625 C 230.753906 300.65625 226.808594 310.886719 220.527344 320.398438 Z M 202.589844 288.269531 C 214.609375 288.269531 231.648438 289.707031 239.902344 282.167969 C 239.902344 282.167969 238.46875 286.652344 232.007812 288.449219 C 213.890625 318.964844 188.777344 317.527344 187.164062 317.347656 C 185.546875 317.527344 160.613281 318.964844 142.316406 288.449219 C 135.859375 286.652344 134.421875 282.167969 134.421875 282.167969 C 142.675781 289.707031 159.714844 288.269531 171.734375 288.269531 C 183.214844 288.269531 186.804688 291.5 187.164062 291.859375 C 187.339844 291.5 190.929688 288.269531 202.589844 288.269531 Z M 199.359375 271.933594 C 196.3125 283.601562 187.878906 282.347656 187.164062 282.167969 C 186.265625 282.347656 177.835938 283.601562 174.964844 271.933594 C 171.015625 256.320312 157.921875 262.421875 165.097656 244.832031 C 165.097656 244.832031 163.304688 251.652344 166.351562 255.601562 C 169.402344 259.550781 172.8125 257.933594 176.21875 267.808594 C 179.628906 277.679688 183.753906 279.472656 187.164062 279.472656 C 190.570312 279.472656 194.875 277.5 198.105469 267.808594 C 201.511719 257.933594 204.921875 259.550781 207.972656 255.601562 C 211.019531 251.652344 209.226562 244.832031 209.226562 244.832031 C 216.582031 262.242188 203.488281 256.320312 199.359375 271.933594 Z M 199.359375 271.933594 " fill-opacity="1" fill-rule="nonzero"/><path fill="#de2427" d="M 73.96875 221.136719 C 84.554688 237.832031 86.707031 251.832031 87.78125 258.472656 C 87.960938 259.371094 87.960938 260.089844 88.140625 260.625 C 89.039062 265.113281 92.265625 269.960938 98.722656 270.140625 C 96.75 254.523438 93.34375 244.113281 91.011719 236.214844 C 89.933594 232.804688 89.039062 230.292969 88.679688 227.957031 C 88.5 227.417969 88.5 226.882812 88.320312 226.164062 C 86.347656 224.546875 85.449219 222.574219 85.089844 220.058594 C 75.582031 207.855469 79.53125 191.160156 80.964844 186.671875 C 78.273438 182.007812 74.507812 177.519531 71.457031 173.929688 C 71.457031 174.109375 71.636719 174.289062 71.636719 174.46875 C 73.25 177.699219 74.328125 180.03125 74.148438 185.777344 C 74.148438 186.851562 73.96875 188.109375 73.96875 189.1875 C 73.429688 197.085938 71.097656 205.878906 78.273438 215.933594 C 78.09375 215.753906 69.84375 210.367188 70.023438 188.828125 C 70.023438 187.75 70.203125 186.492188 70.203125 185.417969 C 70.382812 180.75 69.664062 179.132812 68.230469 176.261719 C 67.152344 173.929688 65.71875 171.058594 64.101562 165.851562 C 60.875 154.542969 55.132812 144.492188 54.953125 144.3125 C 54.953125 144.3125 64.101562 152.210938 67.871094 164.058594 C 70.738281 166.75 87.421875 182.722656 89.394531 196.90625 C 89.394531 197.445312 89.574219 197.800781 89.574219 198.339844 C 90.113281 194.75 90.652344 191.699219 91.191406 189.90625 C 91.90625 187.390625 92.085938 184.160156 91.726562 180.75 C 91.726562 180.570312 83.835938 168.363281 72.894531 159.75 C 74.328125 163.878906 74.6875 166.75 74.328125 167.109375 C 74.328125 167.109375 72.894531 162.980469 69.664062 157.414062 C 69.664062 157.414062 69.484375 157.234375 69.484375 157.234375 L 69.484375 157.054688 C 65.359375 149.875 58.722656 140.542969 49.035156 134.4375 C 51.007812 138.566406 53.160156 144.492188 54.058594 151.671875 C 54.773438 157.953125 57.285156 161.363281 59.617188 164.773438 C 61.769531 168.003906 64.101562 171.417969 64.28125 176.441406 C 64.28125 177.699219 64.28125 179.132812 64.28125 180.570312 C 64.28125 190.980469 64.101562 205.519531 73.96875 221.136719 Z M 73.96875 221.136719 " fill-opacity="1" fill-rule="nonzero"/><path fill="#f5e4e4" d="M 221.605469 290.78125 L 211.917969 291.679688 L 211.738281 295.269531 L 209.765625 291.320312 L 201.332031 292.039062 L 201.332031 296.347656 C 201.332031 296.347656 199.71875 292.039062 198.644531 291.679688 C 197.566406 291.320312 189.136719 293.476562 186.984375 295.808594 C 184.832031 293.476562 176.398438 291.320312 175.324219 291.679688 C 174.246094 292.039062 172.632812 296.347656 172.632812 296.347656 L 172.632812 292.039062 L 164.199219 291.320312 L 162.226562 295.269531 L 162.046875 291.679688 L 152.359375 290.78125 L 152.183594 290.78125 C 152.539062 292.398438 153.078125 294.910156 154.691406 296.167969 C 154.691406 296.167969 155.050781 294.910156 155.410156 294.910156 C 155.410156 294.910156 156.847656 299.9375 159 301.195312 C 159 301.195312 161.511719 298.140625 161.511719 297.246094 C 161.511719 297.246094 161.511719 298.679688 162.046875 299.398438 C 162.585938 299.9375 171.375 301.195312 171.554688 301.015625 C 171.734375 300.835938 172.09375 299.757812 172.09375 299.757812 C 172.09375 299.757812 173.886719 302.269531 179.628906 302.449219 C 184.832031 302.628906 186.085938 302.808594 186.625 301.550781 L 186.625 301.015625 C 186.625 301.195312 186.625 301.195312 186.625 301.371094 C 186.625 301.195312 186.625 301.195312 186.625 301.015625 L 186.625 301.550781 C 187.164062 302.988281 188.417969 302.628906 193.621094 302.449219 C 199.359375 302.269531 201.15625 299.757812 201.15625 299.757812 C 201.15625 299.757812 201.511719 300.835938 201.691406 301.015625 C 201.871094 301.195312 210.660156 300.117188 211.199219 299.398438 C 211.738281 298.859375 211.738281 297.246094 211.738281 297.246094 C 211.738281 298.140625 214.25 301.195312 214.25 301.195312 C 216.402344 299.9375 217.835938 294.910156 217.835938 294.910156 C 218.195312 294.910156 218.554688 296.167969 218.554688 296.167969 C 220.707031 294.910156 221.425781 292.398438 221.605469 290.78125 Z M 221.605469 290.78125 " fill-opacity="1" fill-rule="nonzero"/><path fill="#f5e4e4" d="M 196.3125 311.066406 C 194.160156 309.988281 188.417969 309.628906 188.238281 310.707031 C 188.058594 311.605469 187.339844 311.605469 187.164062 311.605469 C 186.984375 311.605469 186.265625 311.605469 186.085938 310.707031 C 185.90625 309.628906 179.988281 309.988281 178.011719 311.066406 C 178.011719 311.066406 171.015625 306.9375 168.148438 310.527344 C 168.148438 310.527344 171.375 313.21875 174.785156 313.398438 L 174.964844 312.5 C 174.964844 312.5 175.144531 314.476562 180.523438 315.015625 C 186.085938 315.554688 186.265625 315.375 186.265625 315.375 L 187.164062 313.757812 L 187.164062 313.398438 L 187.164062 313.578125 L 187.164062 313.398438 L 187.164062 313.757812 L 188.058594 315.375 C 188.058594 315.375 188.417969 315.554688 193.800781 315.015625 C 199.359375 314.476562 199.359375 312.5 199.359375 312.5 L 199.539062 313.398438 C 202.769531 313.21875 206.175781 310.527344 206.175781 310.527344 C 203.308594 306.9375 196.3125 311.066406 196.3125 311.066406 Z M 196.3125 311.066406 " fill-opacity="1" fill-rule="nonzero"/><path fill="#de2427" d="M 261.789062 90.640625 C 254.792969 94.949219 248.871094 96.925781 245.285156 97.640625 C 244.566406 97.820312 244.027344 98.539062 244.027344 99.257812 C 244.386719 108.949219 246.71875 115.773438 251.382812 119.539062 C 256.046875 123.308594 261.609375 122.773438 263.042969 122.59375 C 286.363281 109.308594 289.59375 73.769531 289.773438 56.359375 C 281.339844 75.203125 270.21875 85.4375 261.789062 90.640625 Z M 286.722656 66.230469 C 280.800781 98 251.5625 104.644531 259.277344 111.285156 C 266.988281 118.105469 281.339844 97.820312 281.339844 97.820312 C 272.730469 115.773438 261.25 121.875 261.25 121.875 C 249.230469 119.71875 246.179688 103.386719 245.640625 100.335938 C 245.640625 100.15625 245.820312 99.976562 246 99.796875 C 248.511719 99.617188 250.84375 99.078125 253.175781 98 C 276.855469 87.050781 286.722656 66.230469 286.722656 66.230469 Z M 286.722656 66.230469 " fill-opacity="1" fill-rule="nonzero"/><path fill="#de2427" d="M 111.460938 122.773438 C 112.714844 122.953125 118.277344 123.488281 123.121094 119.71875 C 127.785156 115.949219 130.117188 109.128906 130.476562 99.4375 C 130.476562 98.71875 129.9375 98 129.21875 97.820312 C 125.632812 97.105469 119.710938 95.308594 112.714844 90.820312 C 104.285156 85.4375 93.164062 75.382812 84.910156 56.535156 C 84.730469 73.949219 87.960938 109.488281 111.460938 122.773438 Z M 120.96875 98 C 123.121094 99.078125 125.632812 99.617188 128.144531 99.796875 C 128.324219 99.796875 128.503906 99.976562 128.503906 100.335938 C 127.964844 103.207031 124.914062 119.71875 112.894531 121.875 C 112.894531 121.875 101.414062 115.773438 92.804688 97.820312 C 92.804688 97.820312 107.15625 117.925781 114.871094 111.285156 C 122.582031 104.644531 93.164062 98 87.421875 66.230469 C 87.601562 66.230469 97.46875 87.050781 120.96875 98 Z M 120.96875 98 " fill-opacity="1" fill-rule="nonzero"/><path fill="#de2427" d="M 325.289062 135.15625 C 315.601562 141.441406 308.964844 150.773438 304.839844 157.773438 L 304.839844 157.953125 C 304.839844 157.953125 304.660156 158.132812 304.660156 158.132812 C 301.433594 163.699219 299.996094 167.824219 299.996094 167.824219 C 299.636719 167.46875 299.996094 164.59375 301.433594 160.464844 C 290.667969 168.902344 282.777344 181.289062 282.597656 181.46875 C 282.417969 184.878906 282.417969 188.109375 283.132812 190.621094 C 283.671875 192.417969 284.390625 195.46875 284.75 199.058594 C 284.75 198.519531 284.929688 198.160156 284.929688 197.621094 C 287.082031 183.441406 303.585938 167.648438 306.453125 164.773438 C 310.042969 152.925781 319.371094 145.03125 319.371094 145.03125 C 319.371094 145.210938 313.628906 155.082031 310.222656 166.570312 C 308.785156 171.773438 307.351562 174.648438 306.097656 176.980469 C 304.660156 180.03125 303.765625 181.648438 304.121094 186.136719 C 304.121094 187.210938 304.300781 188.289062 304.300781 189.546875 C 304.480469 210.90625 296.230469 216.46875 296.050781 216.648438 C 303.226562 206.597656 300.894531 197.800781 300.355469 189.90625 C 300.175781 188.648438 300.175781 187.570312 300.175781 186.492188 C 299.816406 180.75 301.074219 178.417969 302.6875 175.183594 C 302.6875 175.007812 302.867188 174.828125 302.867188 174.648438 C 299.816406 178.238281 296.050781 182.722656 293.359375 187.390625 C 294.792969 191.878906 298.921875 208.570312 289.234375 220.777344 C 288.875 223.113281 287.976562 225.085938 286.003906 226.882812 C 286.003906 227.597656 285.824219 228.136719 285.644531 228.675781 C 285.109375 231.007812 284.390625 233.523438 283.3125 236.933594 C 280.800781 244.652344 277.574219 255.242188 275.601562 270.859375 C 282.058594 270.679688 285.285156 265.832031 286.183594 261.34375 C 286.363281 260.804688 286.363281 259.910156 286.542969 259.191406 C 287.617188 252.550781 289.773438 238.546875 300.355469 221.855469 C 310.222656 206.238281 310.042969 191.699219 310.042969 182.007812 C 310.042969 180.570312 310.042969 179.132812 310.042969 177.878906 C 310.222656 172.671875 312.554688 169.441406 314.707031 166.210938 C 317.039062 162.800781 319.550781 159.390625 320.265625 153.105469 C 321.164062 145.210938 323.316406 139.285156 325.289062 135.15625 Z M 325.289062 135.15625 " fill-opacity="1" fill-rule="nonzero"/><path fill="#c7abab" d="M 225.191406 289.886719 C 225.191406 289.886719 223.9375 289.886719 221.785156 289.886719 L 221.246094 289.167969 L 220.886719 289.707031 C 214.609375 289.527344 203.488281 289.527344 201.691406 289.707031 C 199 290.066406 187.164062 293.476562 186.984375 293.476562 C 186.804688 293.476562 174.964844 290.066406 172.273438 289.707031 C 170.300781 289.347656 159.179688 289.527344 153.078125 289.707031 L 152.71875 289.167969 L 152.183594 289.886719 C 150.207031 289.886719 148.773438 289.886719 148.773438 289.886719 L 151.105469 291.140625 L 150.027344 292.578125 C 150.027344 292.578125 151.105469 298.679688 151.105469 298.859375 C 151.285156 299.039062 158.28125 302.988281 159.179688 303.347656 C 160.074219 303.707031 167.25 303.707031 167.25 303.707031 L 185.007812 305.679688 L 186.804688 302.988281 L 188.597656 305.679688 L 206.355469 303.707031 C 206.355469 303.707031 213.53125 303.707031 214.429688 303.347656 C 215.324219 302.988281 222.320312 299.039062 222.5 298.859375 C 222.679688 298.679688 223.578125 292.578125 223.578125 292.578125 L 222.5 291.140625 Z M 172.273438 299.21875 C 172.273438 299.21875 165.996094 300.835938 162.40625 297.246094 C 162.40625 297.246094 160.613281 298.859375 159.894531 298.5 C 159 298.140625 157.023438 294.011719 157.023438 294.011719 L 155.949219 294.371094 L 155.050781 292.757812 C 155.769531 292.757812 161.152344 293.296875 161.867188 294.371094 C 162.765625 295.449219 162.765625 296.167969 162.765625 296.167969 C 162.765625 296.167969 164.558594 294.730469 165.816406 294.371094 C 166.53125 294.191406 168.148438 294.011719 169.402344 294.011719 C 170.480469 294.011719 171.375 294.550781 171.734375 295.449219 L 172.632812 297.78125 C 172.632812 297.78125 174.605469 294.550781 177.117188 294.730469 C 179.628906 294.910156 186.445312 297.066406 186.625 299.21875 C 186.625 301.550781 177.65625 302.628906 172.273438 299.21875 Z M 218.554688 294.371094 L 217.480469 294.011719 C 217.480469 294.011719 215.503906 297.960938 214.609375 298.5 C 213.710938 298.859375 212.097656 297.246094 212.097656 297.246094 C 208.507812 300.65625 202.230469 299.21875 202.230469 299.21875 C 197.027344 302.628906 187.878906 301.550781 188.058594 299.398438 C 188.238281 297.066406 195.054688 295.089844 197.566406 294.910156 C 200.078125 294.730469 202.050781 297.960938 202.050781 297.960938 L 202.949219 295.449219 C 203.308594 294.550781 204.203125 294.011719 205.101562 294.011719 C 206.355469 294.011719 208.152344 294.191406 208.867188 294.371094 C 210.125 294.730469 211.917969 296.167969 211.917969 296.167969 C 211.917969 296.167969 211.917969 295.449219 212.816406 294.371094 C 213.53125 293.296875 218.914062 292.9375 219.632812 292.757812 Z M 218.554688 294.371094 " fill-opacity="1" fill-rule="nonzero"/><path fill="#c7abab" d="M 199.359375 310.886719 C 197.566406 310.707031 197.746094 314.296875 192.183594 313.578125 C 188.238281 313.039062 187.339844 312.859375 187.164062 312.859375 C 186.984375 312.859375 186.085938 313.039062 182.140625 313.578125 C 176.578125 314.296875 176.9375 310.707031 174.964844 310.886719 C 170.660156 311.425781 167.789062 310.527344 167.789062 310.527344 C 167.789062 310.527344 169.042969 312.859375 169.402344 313.039062 C 169.761719 313.21875 186.085938 316.628906 186.984375 316.808594 C 188.058594 316.628906 204.203125 313.21875 204.5625 313.039062 C 204.921875 312.859375 206.175781 310.527344 206.175781 310.527344 C 206.175781 310.527344 203.664062 311.425781 199.359375 310.886719 Z M 199.359375 310.886719 " fill-opacity="1" fill-rule="nonzero"/><path fill="#841a1b" d="M 141.238281 295.808594 C 141.238281 295.808594 148.054688 338.886719 187.164062 339.964844 L 187.164062 326.683594 C 187.164062 326.683594 181.242188 324.527344 177.476562 323.988281 C 173.527344 323.453125 160.074219 319.324219 141.238281 295.808594 Z M 141.238281 295.808594 " fill-opacity="1" fill-rule="nonzero"/><path fill="#e84d4d" d="M 80.066406 181.289062 L 88.679688 195.648438 C 88.320312 177.699219 78.273438 169.621094 78.273438 169.621094 C 81.324219 176.800781 80.066406 181.289062 80.066406 181.289062 Z M 80.066406 181.289062 " fill-opacity="1" fill-rule="nonzero"/><path fill="#e84d4d" d="M 216.402344 309.269531 C 198.105469 320.578125 187.164062 319.324219 187.164062 319.324219 C 185.90625 319.324219 175.144531 319.863281 157.921875 309.269531 C 157.921875 309.269531 168.507812 323.628906 187.164062 323.628906 C 205.820312 323.453125 216.402344 309.269531 216.402344 309.269531 Z M 216.402344 309.269531 " fill-opacity="1" fill-rule="nonzero"/><path fill="#e84d4d" d="M 93.34375 91.359375 C 93.34375 91.359375 86.707031 80.769531 87.0625 65.511719 C 87.0625 65.511719 98.007812 91.359375 114.332031 100.875 C 119.535156 103.925781 122.402344 105.359375 123.839844 105.898438 L 122.042969 115.234375 C 122.042969 115.234375 126.707031 111.824219 128.324219 106.617188 C 128.324219 106.617188 124.375 119.539062 122.941406 121.875 C 121.507812 124.207031 127.964844 115.773438 127.964844 115.773438 L 132.089844 105.359375 L 133.167969 96.566406 L 121.148438 93.691406 C 121.148438 93.691406 98.1875 75.203125 96.570312 72.691406 C 94.957031 70.179688 84.910156 53.304688 84.910156 53.304688 C 84.910156 53.304688 80.425781 67.128906 86.347656 80.589844 C 85.988281 80.230469 89.039062 87.230469 93.34375 91.359375 Z M 93.34375 91.359375 " fill-opacity="1" fill-rule="nonzero"/><path fill="#e84d4d" d="M 122.582031 130.132812 C 109.667969 132.285156 103.566406 122.054688 103.566406 122.054688 L 101.054688 129.414062 C 101.054688 129.414062 101.054688 140.722656 101.054688 140.902344 C 101.054688 141.082031 103.566406 148.621094 103.566406 148.621094 C 104.464844 146.285156 105.898438 136.054688 105.898438 136.054688 C 109.128906 137.671875 111.640625 152.03125 111.640625 152.03125 C 114.691406 149.695312 134.242188 143.234375 134.242188 143.234375 C 123.839844 141.976562 113.253906 148.441406 113.253906 148.441406 C 113.074219 129.773438 146.082031 131.027344 146.082031 131.027344 C 141.417969 127.796875 131.015625 130.3125 131.015625 130.3125 C 132.269531 129.414062 142.496094 124.746094 142.496094 124.746094 C 137.292969 124.746094 135.5 128.15625 122.582031 130.132812 Z M 122.582031 130.132812 " fill-opacity="1" fill-rule="nonzero"/><path fill="#e84d4d" d="M 126.886719 154.363281 C 126.886719 154.363281 139.625 156.519531 148.953125 161.902344 C 158.101562 167.289062 180.882812 173.929688 180.882812 173.929688 C 171.734375 184.160156 155.769531 174.648438 155.769531 174.648438 C 167.789062 188.648438 187.164062 187.929688 187.164062 187.929688 C 188.957031 187.929688 207.074219 187.929688 218.554688 174.648438 C 218.554688 174.648438 202.769531 184.160156 193.441406 173.929688 C 193.441406 173.929688 216.042969 167.289062 225.371094 161.902344 C 234.519531 156.519531 247.4375 154.363281 247.4375 154.363281 C 247.4375 154.363281 240.621094 149.160156 230.035156 152.03125 C 219.453125 154.902344 207.074219 169.261719 187.164062 167.289062 C 167.070312 169.082031 154.871094 154.902344 144.289062 152.03125 C 133.527344 149.160156 126.886719 154.363281 126.886719 154.363281 Z M 126.886719 154.363281 " fill-opacity="1" fill-rule="nonzero"/><path fill="#e84d4d" d="M 160.074219 206.238281 C 160.074219 206.238281 156.308594 206.238281 147.339844 207.855469 C 138.191406 209.648438 137.472656 206.597656 128.683594 205.699219 C 119.890625 204.804688 116.484375 207.136719 116.484375 207.136719 C 122.402344 207.855469 126.171875 212.339844 134.0625 213.417969 C 150.746094 214.675781 160.074219 206.238281 160.074219 206.238281 Z M 160.074219 206.238281 " fill-opacity="1" fill-rule="nonzero"/><path fill="#e84d4d" d="M 125.09375 259.730469 C 118.816406 264.753906 118.636719 269.960938 118.636719 269.960938 C 117.738281 271.21875 109.128906 284.5 109.128906 284.5 L 108.949219 284.859375 C 108.949219 284.859375 106.078125 278.039062 103.566406 264.394531 C 101.054688 250.933594 98.546875 240.164062 98.546875 240.164062 C 99.261719 243.035156 97.828125 255.242188 97.828125 255.242188 L 101.59375 275.347656 L 107.335938 287.730469 C 107.335938 287.730469 111.28125 284.679688 116.484375 276.421875 C 121.867188 268.164062 135.679688 260.269531 135.679688 260.269531 C 126.53125 262.421875 120.96875 267.628906 120.96875 267.628906 C 122.222656 263.5 125.09375 259.730469 125.09375 259.730469 Z M 125.09375 259.730469 " fill-opacity="1" fill-rule="nonzero"/><path fill="#e84d4d" d="M 135.5 236.035156 C 153.078125 234.597656 167.789062 218.804688 167.789062 218.804688 C 167.789062 218.804688 169.222656 225.804688 165.097656 230.652344 C 157.5625 240.164062 160.972656 249.675781 160.972656 249.675781 C 160.972656 249.675781 163.125 238.011719 166.53125 233.703125 C 169.941406 229.574219 170.480469 225.445312 170.300781 219.703125 C 170.121094 213.957031 173.707031 206.417969 173.707031 206.417969 C 170.839844 208.570312 167.609375 216.289062 167.609375 216.289062 C 167.609375 216.289062 156.667969 225.984375 139.984375 231.546875 C 123.300781 237.113281 109.488281 226.523438 109.488281 226.523438 C 109.488281 226.523438 117.917969 237.472656 135.5 236.035156 Z M 135.5 236.035156 " fill-opacity="1" fill-rule="nonzero"/><path fill="#e84d4d" d="M 98.902344 208.929688 C 101.953125 220.417969 108.410156 224.90625 108.410156 224.90625 C 108.410156 224.90625 105.003906 221.136719 103.925781 214.496094 C 102.851562 207.855469 105.183594 200.675781 105.183594 200.675781 C 106.257812 203.726562 109.488281 204.445312 109.488281 204.445312 C 112.539062 196.007812 125.453125 186.492188 125.453125 186.492188 C 112.539062 186.3125 102.671875 194.75 102.671875 194.75 C 102.671875 185.597656 107.515625 180.570312 107.515625 180.570312 C 105.71875 181.289062 102.671875 183.082031 102.671875 183.082031 C 108.769531 162.621094 127.425781 165.851562 138.011719 173.929688 C 148.773438 182.007812 155.410156 183.800781 155.410156 183.800781 C 147.695312 179.851562 146.980469 172.3125 137.652344 166.570312 C 128.144531 160.824219 114.511719 166.03125 114.511719 166.03125 C 115.046875 165.492188 121.507812 162.082031 121.507812 162.082031 C 105.542969 162.800781 101.054688 175.183594 101.054688 175.183594 C 100.160156 167.648438 103.03125 152.570312 103.03125 152.570312 C 103.03125 152.570312 96.929688 163.878906 97.648438 176.082031 C 98.367188 188.109375 96.75 190.980469 94.238281 203.726562 C 91.726562 216.648438 95.496094 227.957031 95.496094 227.957031 C 94.777344 219.34375 98.902344 208.929688 98.902344 208.929688 Z M 98.902344 208.929688 " fill-opacity="1" fill-rule="nonzero"/><path fill="#e84d4d" d="M 67.691406 192.597656 C 68.40625 172.671875 63.566406 164.414062 61.054688 160.824219 C 58.542969 157.234375 59.617188 151.492188 57.105469 148.800781 C 54.59375 146.285156 49.214844 134.4375 49.214844 134.4375 L 50.46875 145.03125 C 50.46875 145.03125 53.699219 159.570312 57.285156 163.519531 C 60.875 167.648438 62.308594 182.367188 61.769531 189.007812 C 61.234375 195.648438 71.277344 221.675781 71.457031 221.855469 C 71.636719 222.035156 77.199219 228.496094 77.199219 228.496094 C 77.199219 228.496094 83.117188 254.703125 84.195312 250.753906 C 85.269531 246.984375 81.863281 232.984375 81.863281 232.984375 C 85.089844 236.753906 91.90625 261.703125 93.523438 259.910156 C 95.136719 258.113281 86.886719 236.933594 85.628906 232.445312 C 84.195312 227.777344 66.972656 212.519531 67.691406 192.597656 Z M 67.691406 192.597656 " fill-opacity="1" fill-rule="nonzero"/><path fill="#e84d4d" d="M 246.359375 115.59375 C 246.359375 115.59375 252.816406 124.027344 251.382812 121.695312 C 249.949219 119.363281 246 106.4375 246 106.4375 C 247.617188 111.644531 252.28125 115.054688 252.28125 115.054688 L 250.484375 105.71875 C 251.921875 105.179688 254.792969 103.746094 259.992188 100.695312 C 276.136719 91.179688 287.261719 65.332031 287.261719 65.332031 C 287.617188 80.589844 280.980469 91.179688 280.980469 91.179688 C 285.109375 87.050781 288.15625 80.230469 288.15625 80.230469 C 293.898438 66.769531 289.59375 52.945312 289.59375 52.945312 C 289.59375 52.945312 279.367188 69.820312 277.933594 72.332031 C 276.316406 74.847656 253.355469 93.335938 253.355469 93.335938 L 241.335938 96.207031 L 242.414062 105 Z M 246.359375 115.59375 " fill-opacity="1" fill-rule="nonzero"/><path fill="#e84d4d" d="M 228.0625 130.847656 C 228.0625 130.847656 261.070312 129.59375 260.890625 148.261719 C 260.890625 148.261719 250.304688 141.796875 239.902344 143.054688 C 239.902344 143.054688 259.457031 149.695312 262.503906 151.851562 C 262.503906 151.851562 264.835938 137.492188 268.246094 135.875 C 268.246094 135.875 269.5 146.105469 270.578125 148.441406 C 270.578125 148.441406 273.089844 141.082031 273.089844 140.722656 C 273.089844 140.542969 273.089844 129.234375 273.089844 129.234375 L 270.578125 121.875 C 270.578125 121.875 264.476562 131.925781 251.5625 129.953125 C 238.644531 127.796875 236.671875 124.386719 231.648438 124.386719 C 231.648438 124.386719 241.875 128.875 243.132812 129.953125 C 243.308594 130.132812 232.726562 127.617188 228.0625 130.847656 Z M 228.0625 130.847656 " fill-opacity="1" fill-rule="nonzero"/><path fill="#e84d4d" d="M 173.171875 255.242188 C 168.683594 248.960938 171.734375 237.832031 171.734375 237.832031 C 171.734375 237.832031 167.070312 244.472656 167.789062 252.191406 C 168.507812 259.910156 173.886719 256.679688 177.65625 266.191406 C 181.421875 275.703125 187.164062 276.421875 187.164062 276.421875 C 188.058594 276.242188 193.082031 274.988281 196.492188 266.191406 C 200.257812 256.679688 205.640625 259.730469 206.355469 252.191406 C 207.074219 244.472656 202.410156 237.832031 202.410156 237.832031 C 202.410156 237.832031 205.460938 248.960938 200.976562 255.242188 C 196.492188 261.523438 192.722656 263.5 192.722656 263.5 C 192.722656 263.5 188.957031 251.292969 189.851562 242.675781 C 190.75 234.0625 192.003906 206.957031 193.261719 204.265625 C 193.261719 204.265625 187.878906 198.699219 186.984375 196.1875 L 186.984375 195.648438 C 186.984375 195.828125 186.984375 195.828125 186.984375 196.007812 C 186.984375 195.828125 186.984375 195.828125 186.984375 195.648438 L 186.984375 196.1875 C 186.085938 198.699219 180.703125 204.265625 180.703125 204.265625 C 181.960938 206.957031 183.214844 234.0625 184.113281 242.675781 C 185.007812 251.292969 181.242188 263.5 181.242188 263.5 C 181.242188 263.5 177.65625 261.523438 173.171875 255.242188 Z M 173.171875 255.242188 " fill-opacity="1" fill-rule="nonzero"/><path fill="#e84d4d" d="M 194.875 347.324219 C 194.875 347.324219 208.6875 344.992188 214.070312 339.246094 C 214.070312 339.246094 204.921875 343.554688 196.667969 343.554688 C 196.667969 343.554688 209.226562 337.992188 213.171875 331.886719 C 213.171875 331.886719 201.15625 341.941406 186.984375 341.941406 C 172.992188 341.941406 160.972656 331.886719 160.972656 331.886719 C 164.917969 337.992188 177.476562 343.554688 177.476562 343.554688 C 169.222656 343.554688 160.074219 339.246094 160.074219 339.246094 C 165.457031 345.171875 179.269531 347.324219 179.269531 347.324219 C 160.972656 350.734375 145.902344 337.09375 145.902344 337.09375 C 154.335938 353.070312 187.164062 354.503906 187.164062 354.503906 C 189.496094 354.324219 220.167969 352.53125 228.242188 337.09375 C 228.242188 337.09375 213.171875 350.914062 194.875 347.324219 Z M 194.875 347.324219 " fill-opacity="1" fill-rule="nonzero"/><path fill="#e84d4d" d="M 245.464844 205.699219 C 236.671875 206.777344 235.957031 209.648438 226.808594 207.855469 C 217.65625 206.058594 214.070312 206.238281 214.070312 206.238281 C 214.070312 206.238281 223.398438 214.855469 240.082031 213.417969 C 247.972656 212.339844 251.742188 207.855469 257.660156 207.136719 C 257.660156 206.957031 254.253906 204.625 245.464844 205.699219 Z M 245.464844 205.699219 " fill-opacity="1" fill-rule="nonzero"/><path fill="#e84d4d" d="M 275.421875 240.164062 C 275.421875 240.164062 273.089844 250.753906 270.398438 264.394531 C 267.886719 277.859375 265.015625 284.859375 265.015625 284.859375 L 264.835938 284.5 C 264.835938 284.5 256.226562 271.21875 255.328125 269.960938 C 255.328125 269.960938 255.148438 264.753906 248.871094 259.730469 C 248.871094 259.730469 251.921875 263.5 252.816406 267.628906 C 252.816406 267.628906 247.257812 262.421875 238.109375 260.269531 C 238.109375 260.269531 251.921875 268.164062 257.300781 276.421875 C 262.683594 284.679688 266.453125 287.730469 266.453125 287.730469 L 272.191406 275.347656 L 275.957031 255.242188 C 276.136719 255.242188 274.703125 243.035156 275.421875 240.164062 Z M 275.421875 240.164062 " fill-opacity="1" fill-rule="nonzero"/><path fill="#e84d4d" d="M 238.644531 236.035156 C 256.226562 237.472656 264.476562 226.523438 264.476562 226.523438 C 264.476562 226.523438 250.664062 236.933594 233.980469 231.546875 C 217.300781 225.984375 206.355469 216.289062 206.355469 216.289062 C 206.355469 216.289062 203.128906 208.570312 200.257812 206.417969 C 200.257812 206.417969 203.84375 213.957031 203.664062 219.703125 C 203.488281 225.445312 204.203125 229.394531 207.433594 233.703125 C 210.839844 237.832031 212.992188 249.675781 212.992188 249.675781 C 212.992188 249.675781 216.402344 240.164062 208.867188 230.652344 C 204.742188 225.984375 206.175781 218.804688 206.175781 218.804688 C 206.175781 218.804688 221.246094 234.597656 238.644531 236.035156 Z M 238.644531 236.035156 " fill-opacity="1" fill-rule="nonzero"/><path fill="#e84d4d" d="M 279.90625 203.726562 C 277.394531 190.800781 275.78125 188.109375 276.496094 176.082031 C 277.214844 164.058594 271.117188 152.570312 271.117188 152.570312 C 271.117188 152.570312 274.164062 167.648438 273.089844 175.183594 C 273.089844 175.183594 268.605469 162.800781 252.636719 162.261719 C 252.636719 162.261719 259.097656 165.671875 259.632812 166.210938 C 259.632812 166.210938 245.820312 160.824219 236.492188 166.75 C 226.984375 172.492188 226.449219 180.03125 218.734375 183.980469 C 218.734375 183.980469 225.550781 182.1875 236.136719 174.109375 C 246.898438 166.03125 265.554688 162.800781 271.472656 183.261719 C 271.472656 183.261719 268.425781 181.46875 266.628906 180.75 C 266.628906 180.75 271.472656 185.777344 271.472656 194.929688 C 271.472656 194.929688 261.609375 186.492188 248.691406 186.671875 C 248.691406 186.671875 261.609375 196.1875 264.65625 204.625 C 264.65625 204.625 267.707031 203.90625 268.960938 200.855469 C 268.960938 200.855469 271.292969 208.214844 270.21875 214.675781 C 269.140625 221.316406 265.734375 225.085938 265.734375 225.085938 C 265.734375 225.085938 272.011719 220.597656 275.242188 209.109375 C 275.242188 209.109375 279.1875 219.523438 278.648438 228.136719 C 278.648438 227.957031 282.417969 216.648438 279.90625 203.726562 Z M 279.90625 203.726562 " fill-opacity="1" fill-rule="nonzero"/><path fill="#e84d4d" d="M 317.21875 148.800781 C 314.707031 151.3125 315.78125 157.054688 313.269531 160.824219 C 310.761719 164.414062 305.917969 172.671875 306.632812 192.597656 C 307.351562 212.519531 290.128906 227.777344 288.875 232.445312 C 287.441406 236.933594 279.1875 258.113281 280.980469 259.910156 C 282.597656 261.703125 289.59375 236.753906 292.640625 232.984375 C 292.640625 232.984375 289.234375 246.984375 290.308594 250.753906 C 291.386719 254.523438 297.304688 228.496094 297.304688 228.496094 C 297.304688 228.496094 302.867188 222.035156 303.046875 221.855469 C 303.226562 221.675781 313.269531 195.648438 312.734375 189.007812 C 312.195312 182.367188 313.449219 167.46875 317.21875 163.519531 C 320.804688 159.390625 324.035156 145.03125 324.035156 145.03125 L 325.289062 134.4375 C 325.109375 134.4375 319.730469 146.285156 317.21875 148.800781 Z M 317.21875 148.800781 " fill-opacity="1" fill-rule="nonzero"/><path fill="#e84d4d" d="M 294.078125 181.289062 C 294.078125 181.289062 292.820312 176.800781 296.050781 169.621094 C 296.050781 169.621094 285.824219 177.699219 285.644531 195.648438 Z M 294.078125 181.289062 " fill-opacity="1" fill-rule="nonzero"/><path fill="#841a1b" d="M 259.097656 225.445312 C 259.097656 225.445312 268.785156 217.546875 267.886719 206.957031 C 267.886719 206.957031 260.351562 216.289062 251.382812 219.164062 C 251.382812 219.164062 259.457031 215.035156 264.65625 206.058594 C 264.65625 206.058594 254.253906 212.878906 250.84375 213.597656 C 250.84375 213.597656 253.175781 211.804688 254.433594 208.929688 C 254.433594 208.929688 243.132812 217.1875 237.75 217.1875 C 232.1875 217.367188 236.3125 220.417969 236.3125 220.417969 L 229.675781 225.984375 C 229.675781 225.984375 253.355469 228.316406 253.355469 228.136719 C 253.355469 227.957031 259.097656 225.445312 259.097656 225.445312 Z M 259.097656 225.445312 " fill-opacity="1" fill-rule="nonzero"/><path fill="#841a1b" d="M 232.90625 295.449219 C 232.90625 295.449219 226.089844 338.527344 186.984375 339.605469 L 186.984375 326.324219 C 186.984375 326.324219 192.902344 324.167969 196.667969 323.628906 C 200.617188 323.09375 214.25 318.964844 232.90625 295.449219 Z M 232.90625 295.449219 " fill-opacity="1" fill-rule="nonzero"/><path fill="#841a1b" d="M 186.984375 316.09375 L 186.984375 316.449219 C 180.34375 317.167969 165.996094 311.605469 165.996094 311.605469 C 171.195312 318.785156 186.984375 318.066406 186.984375 318.066406 C 188.597656 318.066406 202.949219 317.886719 207.972656 311.246094 C 208.152344 311.246094 193.441406 316.808594 186.984375 316.09375 Z M 186.984375 316.09375 " fill-opacity="1" fill-rule="nonzero"/><path fill="#841a1b" d="M 144.289062 104.820312 C 145.363281 110.207031 139.085938 114.695312 139.085938 114.695312 C 140.699219 110.386719 139.265625 103.027344 139.265625 103.027344 C 139.085938 109.488281 134.242188 114.875 134.242188 114.875 C 139.625 97.28125 133.527344 94.589844 133.527344 94.589844 L 132.988281 96.386719 C 132.988281 96.386719 130.117188 112.179688 129.21875 114.515625 C 128.324219 116.847656 122.222656 122.953125 122.222656 122.953125 L 110.382812 126.003906 C 121.6875 133.902344 133.703125 126.542969 137.832031 124.746094 C 141.957031 122.773438 148.59375 124.386719 148.59375 124.386719 C 143.03125 124.566406 136.753906 128.515625 136.753906 128.515625 C 142.675781 127.257812 154.335938 130.847656 158.28125 134.082031 C 161.511719 136.773438 165.816406 139.105469 167.429688 140.003906 C 164.378906 138.386719 149.492188 131.386719 138.191406 132.644531 C 119.175781 134.082031 114.152344 146.464844 114.152344 146.464844 C 126.53125 139.464844 140.878906 143.054688 140.878906 143.054688 C 130.65625 144.3125 127.246094 150.773438 127.246094 150.773438 C 146.980469 147.722656 142.855469 149.875 158.101562 157.59375 C 172.453125 164.773438 185.726562 163.699219 186.984375 163.519531 C 187.339844 163.519531 200.976562 165.132812 215.863281 157.59375 C 231.113281 150.054688 226.984375 147.722656 246.71875 150.773438 C 246.71875 150.773438 243.488281 144.3125 233.085938 143.054688 C 233.085938 143.054688 247.4375 139.464844 259.8125 146.464844 C 259.8125 146.464844 254.613281 134.082031 235.777344 132.644531 C 224.296875 131.386719 209.585938 138.566406 206.535156 140.003906 C 208.152344 139.105469 212.457031 136.773438 215.683594 134.082031 C 219.632812 130.667969 231.292969 127.257812 237.210938 128.515625 C 237.210938 128.515625 231.113281 124.566406 225.371094 124.386719 C 225.371094 124.386719 231.828125 122.953125 236.136719 124.746094 C 240.261719 126.722656 252.460938 133.902344 263.582031 126.003906 L 251.742188 122.953125 C 251.742188 122.953125 245.640625 116.847656 244.746094 114.515625 C 243.847656 112.179688 240.976562 96.386719 240.976562 96.386719 L 240.441406 94.589844 C 240.441406 94.589844 234.339844 97.28125 239.722656 114.875 C 239.722656 114.875 234.699219 109.488281 234.699219 103.027344 C 234.699219 103.027344 233.265625 110.386719 234.878906 114.695312 C 234.878906 114.695312 228.601562 110.207031 229.675781 104.820312 C 230.753906 99.4375 236.851562 92.617188 243.132812 90.460938 C 249.410156 88.308594 251.203125 87.050781 251.203125 87.050781 C 251.203125 87.050781 236.136719 83.101562 222.5 92.796875 C 222.5 92.796875 225.730469 89.566406 227.882812 82.742188 C 227.882812 82.742188 208.867188 100.335938 200.796875 98.71875 C 200.796875 98.71875 204.5625 89.921875 206.535156 88.308594 C 206.535156 88.308594 191.109375 98.71875 186.984375 105 C 182.855469 98.71875 167.429688 88.308594 167.429688 88.308594 C 169.402344 89.921875 173.171875 98.71875 173.171875 98.71875 C 165.097656 100.335938 146.082031 82.742188 146.082031 82.742188 C 148.054688 89.566406 151.464844 92.796875 151.464844 92.796875 C 137.832031 83.101562 122.761719 87.050781 122.761719 87.050781 C 122.761719 87.050781 124.554688 88.128906 130.835938 90.460938 C 137.292969 92.617188 143.210938 99.4375 144.289062 104.820312 Z M 144.289062 104.820312 " fill-opacity="1" fill-rule="nonzero"/><path fill="#841a1b" d="M 110.5625 109.488281 C 101.054688 106.257812 90.292969 90.28125 90.292969 90.28125 C 93.34375 102.667969 98.722656 107.695312 98.722656 107.695312 C 98.722656 107.695312 113.074219 117.386719 116.304688 117.746094 C 119.355469 118.105469 122.761719 105.71875 122.761719 105.71875 C 122.761719 105.71875 100.519531 86.691406 97.109375 83.460938 C 93.703125 80.230469 87.601562 66.050781 87.601562 66.050781 C 86.167969 82.027344 105.363281 101.949219 111.460938 108.054688 C 112 108.769531 111.460938 109.847656 110.5625 109.488281 Z M 110.5625 109.488281 " fill-opacity="1" fill-rule="nonzero"/><path fill="#841a1b" d="M 159 174.289062 C 171.015625 180.03125 178.371094 174.828125 178.371094 174.828125 C 176.757812 175.183594 172.273438 173.75 157.203125 167.46875 C 129.9375 154.722656 122.042969 156.695312 122.042969 156.695312 C 121.867188 151.851562 125.632812 148.800781 125.632812 148.800781 C 120.609375 148.621094 110.382812 155.621094 109.488281 151.132812 C 108.769531 146.644531 106.078125 137.3125 106.078125 137.3125 C 108.769531 156.875 101.414062 171.417969 101.414062 171.417969 C 119.710938 148.261719 146.980469 168.542969 159 174.289062 Z M 159 174.289062 " fill-opacity="1" fill-rule="nonzero"/><path fill="#841a1b" d="M 155.949219 204.980469 C 159.179688 203.546875 160.253906 204.445312 160.253906 204.445312 C 162.765625 208.214844 166.351562 206.777344 166.351562 206.777344 C 184.472656 203.367188 185.367188 192.238281 185.367188 192.238281 C 167.96875 191.519531 153.796875 175.542969 153.796875 175.542969 C 155.410156 182.722656 159.894531 188.109375 159.894531 188.109375 C 149.671875 186.851562 131.015625 169.261719 121.328125 169.082031 C 111.640625 168.902344 107.695312 175.902344 107.695312 175.902344 C 108.589844 175.363281 110.382812 174.648438 110.382812 174.648438 C 107.15625 176.800781 104.464844 181.828125 104.464844 181.828125 C 106.976562 179.3125 111.28125 178.238281 111.28125 178.238281 C 103.925781 183.261719 104.464844 191.160156 104.464844 191.160156 C 120.25 176.800781 132.269531 188.289062 132.269531 188.289062 C 121.867188 190.261719 112.179688 206.058594 112.179688 206.058594 C 112.179688 206.058594 125.09375 202.828125 132.269531 204.265625 C 139.625 205.519531 152.539062 206.417969 155.949219 204.980469 Z M 155.949219 204.980469 " fill-opacity="1" fill-rule="nonzero"/><path fill="#841a1b" d="M 79.710938 176.082031 C 79.710938 176.082031 74.507812 164.234375 72.894531 162.261719 L 72.714844 161.542969 C 72.714844 161.542969 84.554688 174.109375 86.347656 180.03125 C 88.320312 185.957031 88.679688 198.339844 88.679688 198.339844 L 88.679688 204.625 L 92.085938 198.160156 C 92.085938 198.160156 94.238281 185.058594 94.238281 184.160156 C 94.238281 183.261719 90.472656 169.441406 88.5 166.929688 C 86.707031 164.054688 73.25 155.621094 73.25 155.621094 C 73.25 155.621094 71.097656 156.695312 70.738281 156.519531 C 70.382812 156.339844 60.875 141.261719 60.335938 140.902344 C 59.796875 140.542969 47.242188 132.105469 47.242188 132.105469 L 48.496094 137.3125 C 48.496094 137.3125 64.820312 150.953125 70.382812 163.160156 Z M 79.710938 176.082031 " fill-opacity="1" fill-rule="nonzero"/><path fill="#841a1b" d="M 92.085938 235.675781 C 92.085938 234.421875 86.347656 205.699219 86.347656 205.699219 L 81.683594 183.800781 L 71.457031 171.773438 L 67.691406 173.390625 C 67.691406 173.390625 68.765625 187.390625 68.230469 195.648438 C 67.691406 203.90625 78.632812 222.035156 82.222656 223.828125 C 82.222656 223.828125 74.148438 210.007812 74.867188 200.855469 C 75.582031 191.699219 77.378906 187.929688 77.378906 187.929688 C 77.378906 187.929688 78.09375 194.390625 75.941406 200.675781 C 73.789062 207.136719 87.960938 228.496094 90.652344 240.34375 C 93.34375 252.011719 98.007812 264.933594 95.136719 266.550781 C 92.265625 267.984375 86.527344 249.855469 85.089844 248.242188 C 83.65625 246.625 88.140625 266.550781 88.140625 266.550781 L 97.46875 271.933594 L 100.339844 271.398438 C 100.339844 271.398438 98.1875 254.882812 97.46875 253.445312 C 96.929688 252.011719 92.085938 236.933594 92.085938 235.675781 Z M 92.085938 235.675781 " fill-opacity="1" fill-rule="nonzero"/><path fill="#841a1b" d="M 151.824219 248.960938 C 124.019531 256.140625 122.582031 265.113281 122.582031 265.113281 C 141.238281 250.394531 159.535156 263.5 159.535156 263.5 C 159.535156 260.089844 158.101562 251.652344 157.023438 246.804688 C 155.949219 241.960938 160.253906 227.957031 160.253906 227.957031 C 160.253906 227.957031 146.800781 239.804688 128.863281 240.34375 C 110.921875 240.882812 98.722656 214.675781 98.722656 214.675781 C 98.722656 214.675781 97.289062 217.546875 97.648438 226.882812 C 98.007812 236.214844 101.953125 241.0625 104.105469 257.214844 C 106.257812 273.371094 109.667969 281.449219 109.667969 281.449219 C 109.667969 281.449219 113.433594 271.398438 119.710938 264.039062 C 131.910156 249.320312 151.824219 248.960938 151.824219 248.960938 Z M 151.824219 248.960938 " fill-opacity="1" fill-rule="nonzero"/><path fill="#841a1b" d="M 106.4375 207.316406 C 105.363281 217.90625 115.226562 225.804688 115.226562 225.804688 C 115.226562 225.804688 121.328125 228.316406 121.328125 228.496094 C 121.328125 228.675781 145.007812 226.34375 145.007812 226.34375 L 138.367188 220.777344 C 138.367188 220.777344 142.496094 217.726562 136.933594 217.546875 C 131.371094 217.367188 120.25 209.289062 120.25 209.289062 C 121.328125 212.164062 123.839844 213.957031 123.839844 213.957031 C 120.429688 213.058594 110.027344 206.417969 110.027344 206.417969 C 115.226562 215.394531 123.300781 219.523438 123.300781 219.523438 C 113.972656 216.828125 106.4375 207.316406 106.4375 207.316406 Z M 106.4375 207.316406 " fill-opacity="1" fill-rule="nonzero"/><path fill="#841a1b" d="M 178.191406 224.367188 C 175.324219 213.597656 179.089844 205.878906 179.089844 205.878906 C 176.398438 207.316406 173.527344 217.1875 173.707031 222.035156 C 174.066406 227.0625 179.808594 232.265625 176.398438 245.726562 C 173.527344 256.855469 179.089844 258.292969 179.089844 258.292969 C 178.011719 255.601562 179.628906 245.371094 180.34375 242.855469 C 181.0625 240.34375 181.242188 235.136719 178.191406 224.367188 Z M 178.191406 224.367188 " fill-opacity="1" fill-rule="nonzero"/><path fill="#841a1b" d="M 257.839844 117.746094 C 260.890625 117.386719 275.421875 107.695312 275.421875 107.695312 C 275.421875 107.695312 280.800781 102.667969 283.851562 90.28125 C 283.851562 90.28125 273.089844 106.257812 263.582031 109.488281 C 262.683594 109.847656 262.144531 108.769531 262.683594 108.054688 C 268.785156 101.949219 288.15625 82.027344 286.542969 66.050781 C 286.542969 66.050781 280.265625 80.230469 277.035156 83.460938 C 273.625 86.691406 251.203125 105.71875 251.203125 105.71875 C 251.203125 105.71875 254.792969 118.285156 257.839844 117.746094 Z M 257.839844 117.746094 " fill-opacity="1" fill-rule="nonzero"/><path fill="#841a1b" d="M 272.550781 171.59375 C 272.550781 171.59375 265.195312 157.054688 267.886719 137.492188 C 267.886719 137.492188 265.195312 147.003906 264.476562 151.3125 C 263.761719 155.800781 253.535156 148.800781 248.332031 148.980469 C 248.332031 148.980469 252.28125 152.03125 251.921875 156.875 C 251.921875 156.875 244.207031 154.902344 216.761719 167.648438 C 201.511719 173.75 197.207031 175.363281 195.59375 175.007812 C 195.59375 175.007812 202.949219 180.210938 214.96875 174.46875 C 227.164062 168.542969 254.613281 148.261719 272.550781 171.59375 Z M 272.550781 171.59375 " fill-opacity="1" fill-rule="nonzero"/><path fill="#841a1b" d="M 263.941406 174.648438 C 263.941406 174.648438 265.734375 175.363281 266.628906 175.902344 C 266.628906 175.902344 262.683594 168.902344 252.996094 169.082031 C 243.308594 169.261719 224.652344 186.851562 214.429688 188.109375 C 214.429688 188.109375 218.914062 182.722656 220.527344 175.542969 C 220.527344 175.542969 206.355469 191.519531 188.957031 192.238281 C 188.957031 192.238281 189.851562 203.367188 207.972656 206.777344 C 207.972656 206.777344 211.558594 208.214844 214.070312 204.445312 C 214.070312 204.445312 214.96875 203.546875 218.375 204.980469 C 221.605469 206.417969 234.699219 205.519531 242.054688 204.085938 C 249.410156 202.648438 262.144531 205.878906 262.144531 205.878906 C 262.144531 205.878906 252.460938 190.082031 242.054688 188.109375 C 242.054688 188.109375 254.074219 176.621094 269.859375 190.980469 C 269.859375 190.980469 270.398438 183.082031 263.042969 178.058594 C 263.042969 178.058594 267.347656 179.132812 269.859375 181.648438 C 269.679688 181.828125 267.167969 176.800781 263.941406 174.648438 Z M 263.941406 174.648438 " fill-opacity="1" fill-rule="nonzero"/><path fill="#841a1b" d="M 313.808594 140.902344 C 313.269531 141.261719 303.765625 156.339844 303.40625 156.519531 C 303.046875 156.695312 300.894531 155.621094 300.894531 155.621094 C 300.894531 155.621094 287.617188 164.234375 285.644531 166.75 C 283.671875 169.261719 279.90625 182.902344 279.90625 183.980469 C 279.90625 185.058594 282.058594 197.980469 282.058594 197.980469 L 285.464844 204.445312 L 285.464844 198.160156 C 285.464844 198.160156 285.824219 185.777344 287.796875 179.851562 C 289.773438 173.929688 301.433594 161.363281 301.433594 161.363281 L 301.253906 162.082031 C 299.636719 164.054688 294.4375 175.902344 294.4375 175.902344 L 303.941406 162.980469 C 309.503906 150.59375 325.828125 137.132812 325.828125 137.132812 L 327.085938 131.925781 C 327.085938 132.105469 314.347656 140.542969 313.808594 140.902344 Z M 313.808594 140.902344 " fill-opacity="1" fill-rule="nonzero"/><path fill="#841a1b" d="M 302.6875 171.773438 L 292.460938 183.800781 L 287.796875 205.699219 C 287.796875 205.699219 282.058594 234.421875 282.058594 235.675781 C 282.058594 236.933594 277.214844 252.011719 276.496094 253.625 C 275.78125 255.242188 273.625 271.578125 273.625 271.578125 L 276.496094 272.113281 L 285.824219 266.730469 C 285.824219 266.730469 290.308594 246.804688 288.875 248.421875 C 287.441406 250.035156 281.699219 268.164062 278.828125 266.730469 C 275.957031 265.292969 280.445312 252.371094 283.3125 240.523438 C 286.003906 228.855469 300.175781 207.316406 298.023438 200.855469 C 295.871094 194.390625 296.589844 188.109375 296.589844 188.109375 C 296.589844 188.109375 298.382812 191.878906 299.101562 201.035156 C 299.816406 210.1875 291.746094 224.007812 291.746094 224.007812 C 295.332031 222.035156 306.273438 204.085938 305.738281 195.828125 C 305.199219 187.570312 306.273438 173.570312 306.273438 173.570312 Z M 302.6875 171.773438 " fill-opacity="1" fill-rule="nonzero"/><path fill="#841a1b" d="M 275.421875 214.855469 C 275.421875 214.855469 263.042969 241.0625 245.285156 240.523438 C 227.523438 239.984375 213.890625 228.136719 213.890625 228.136719 C 213.890625 228.136719 218.195312 242.136719 217.121094 246.984375 C 216.042969 251.832031 214.609375 260.269531 214.609375 263.679688 C 214.609375 263.679688 232.90625 250.753906 251.5625 265.292969 C 251.5625 265.292969 250.304688 256.320312 222.320312 249.140625 C 222.320312 249.140625 242.414062 249.496094 254.613281 264.394531 C 260.890625 271.753906 264.65625 281.808594 264.65625 281.808594 C 264.65625 281.808594 268.066406 273.730469 270.21875 257.574219 C 272.371094 241.421875 276.316406 236.574219 276.675781 227.238281 C 276.855469 217.90625 275.421875 214.855469 275.421875 214.855469 Z M 275.421875 214.855469 " fill-opacity="1" fill-rule="nonzero"/><path fill="#841a1b" d="M 221.964844 275.523438 C 221.964844 275.523438 209.226562 276.601562 209.046875 276.78125 C 208.867188 276.960938 202.050781 279.292969 201.691406 280.730469 C 201.332031 282.167969 204.382812 285.21875 204.382812 285.21875 C 194.160156 283.0625 188.058594 288.089844 187.164062 288.808594 C 186.445312 288.269531 180.167969 283.242188 169.941406 285.21875 C 169.941406 285.21875 172.992188 282.167969 172.632812 280.730469 C 172.273438 279.292969 165.457031 276.960938 165.277344 276.78125 C 165.097656 276.601562 152.359375 275.523438 152.359375 275.523438 C 152.359375 275.523438 121.148438 273.371094 116.304688 283.78125 C 111.460938 294.011719 112 299.21875 112 299.21875 L 119.355469 306.578125 C 119.355469 306.578125 137.472656 324.167969 140.34375 329.554688 C 140.34375 329.554688 134.601562 318.605469 133.882812 317.527344 C 133.882812 317.527344 152.539062 344.8125 161.6875 344.453125 C 161.6875 344.453125 158.820312 342.121094 155.769531 335.476562 C 155.769531 335.476562 162.585938 338.886719 163.84375 339.425781 C 163.84375 339.425781 155.769531 329.734375 152.003906 325.964844 C 148.234375 322.195312 124.019531 289.167969 138.90625 290.960938 C 138.90625 290.960938 131.730469 285.9375 131.910156 284.320312 C 131.910156 283.78125 132.449219 283.242188 133.347656 282.707031 C 134.601562 283.960938 136.214844 285.398438 137.832031 285.9375 C 140.878906 287.011719 146.800781 289.347656 146.800781 289.347656 L 159.179688 289.347656 L 186.804688 293.117188 L 186.984375 293.117188 L 214.609375 289.347656 L 226.984375 289.347656 C 226.984375 289.347656 232.90625 287.011719 235.957031 285.9375 C 237.570312 285.398438 239.183594 283.960938 240.441406 282.707031 C 241.335938 283.242188 241.875 283.78125 241.875 284.320312 C 242.054688 285.9375 234.878906 290.960938 234.878906 290.960938 C 249.949219 289.167969 225.550781 322.195312 221.785156 325.964844 C 218.015625 329.734375 209.945312 339.425781 209.945312 339.425781 C 211.199219 338.886719 218.015625 335.476562 218.015625 335.476562 C 214.96875 342.121094 212.097656 344.453125 212.097656 344.453125 C 221.425781 344.8125 239.902344 317.527344 239.902344 317.527344 C 239.003906 318.605469 233.445312 329.554688 233.445312 329.554688 C 236.3125 324.167969 254.433594 306.578125 254.433594 306.578125 L 261.789062 299.21875 C 261.789062 299.21875 262.324219 294.191406 257.480469 283.78125 C 253.175781 273.371094 221.964844 275.523438 221.964844 275.523438 Z M 134.601562 282.167969 C 137.113281 280.910156 141.238281 280.011719 144.648438 280.910156 C 149.492188 282.347656 157.023438 286.117188 160.792969 286.117188 C 157.203125 286.296875 143.75 286.832031 134.601562 282.167969 Z M 213.351562 286.117188 C 217.121094 286.117188 224.652344 282.347656 229.496094 280.910156 C 232.726562 280.011719 236.851562 280.910156 239.542969 282.167969 C 230.574219 286.832031 216.941406 286.296875 213.351562 286.117188 Z M 213.351562 286.117188 " fill-opacity="1" fill-rule="nonzero"/><path fill="#841a1b" d="M 193.800781 243.214844 C 194.515625 245.726562 196.132812 255.960938 195.054688 258.652344 C 195.054688 258.652344 200.617188 257.214844 197.746094 246.085938 C 194.335938 232.445312 200.078125 227.238281 200.4375 222.394531 C 200.796875 217.367188 197.746094 207.496094 195.054688 206.238281 C 195.054688 206.238281 198.824219 213.777344 195.953125 224.726562 C 193.082031 235.136719 193.082031 240.703125 193.800781 243.214844 Z M 193.800781 243.214844 " fill-opacity="1" fill-rule="nonzero"/><path fill="#841a1b" d="M 187.164062 283.421875 C 198.824219 282.527344 202.589844 272.832031 203.84375 267.808594 C 204.203125 266.011719 205.460938 264.574219 206.894531 263.679688 C 216.761719 257.933594 209.226562 245.191406 209.226562 245.191406 C 210.304688 246.445312 209.765625 255.0625 208.328125 257.394531 C 206.894531 259.730469 201.332031 262.421875 200.976562 262.421875 C 200.796875 262.421875 196.847656 271.933594 194.515625 276.421875 C 192.363281 280.550781 187.878906 280.730469 186.984375 280.910156 C 186.984375 280.910156 181.601562 280.910156 179.269531 276.421875 C 176.9375 271.933594 172.992188 262.421875 172.8125 262.421875 C 172.632812 262.421875 166.890625 259.730469 165.457031 257.394531 C 164.019531 255.0625 163.664062 246.445312 164.558594 245.191406 C 164.558594 245.191406 157.023438 257.753906 166.890625 263.679688 C 168.507812 264.574219 169.582031 266.191406 169.941406 267.808594 C 171.554688 272.832031 175.324219 282.527344 187.164062 283.421875 C 186.984375 283.421875 187.164062 283.421875 187.164062 283.421875 Z M 187.164062 283.421875 " fill-opacity="1" fill-rule="nonzero"/><path fill="#250d0f" d="M 178.550781 257.394531 C 178.550781 257.394531 179.269531 248.960938 180.703125 245.90625 C 182.140625 242.855469 183.035156 234.242188 179.628906 225.265625 C 176.21875 216.289062 178.371094 207.316406 178.371094 207.316406 C 178.371094 207.316406 175.324219 213.417969 176.398438 219.34375 C 177.296875 225.265625 179.988281 230.472656 179.628906 237.472656 C 179.269531 244.113281 177.296875 249.320312 178.550781 257.394531 Z M 178.550781 257.394531 " fill-opacity="1" fill-rule="nonzero"/><path fill="#250d0f" d="M 144.109375 214.855469 C 133.527344 218.625 119.710938 209.109375 119.710938 209.109375 C 121.6875 211.625 129.398438 215.753906 129.398438 215.753906 C 123.660156 215.753906 112.539062 209.289062 112.539062 209.289062 C 122.042969 221.316406 136.394531 223.46875 136.394531 223.46875 C 121.6875 225.984375 108.589844 213.597656 108.589844 213.597656 C 108.589844 213.597656 111.820312 233.523438 134.242188 232.265625 C 156.667969 231.007812 173.707031 203.367188 173.707031 203.367188 C 165.277344 202.828125 154.691406 211.265625 144.109375 214.855469 Z M 144.109375 214.855469 " fill-opacity="1" fill-rule="nonzero"/><path fill="#250d0f" d="M 161.867188 135.15625 C 171.914062 143.953125 186.804688 142.875 187.164062 142.695312 C 187.519531 142.695312 202.410156 143.953125 212.457031 135.15625 C 222.5 126.183594 229.316406 126.722656 229.316406 126.722656 C 229.316406 126.722656 219.8125 123.308594 212.277344 130.492188 C 204.921875 137.671875 187.878906 136.59375 187.164062 136.59375 C 186.625 136.59375 169.582031 137.671875 162.046875 130.492188 C 154.515625 123.132812 145.007812 126.722656 145.007812 126.722656 C 145.007812 126.722656 151.824219 126.363281 161.867188 135.15625 Z M 161.867188 135.15625 " fill-opacity="1" fill-rule="nonzero"/><path fill="#250d0f" d="M 148.414062 143.953125 C 148.414062 143.953125 138.90625 142.875 132.988281 147.363281 C 132.988281 147.363281 142.136719 145.746094 146.261719 148.082031 C 150.386719 150.414062 170.480469 160.824219 186.984375 160.824219 C 203.308594 160.824219 223.398438 150.414062 227.703125 148.082031 C 231.828125 145.746094 240.976562 147.363281 240.976562 147.363281 C 235.238281 142.875 225.550781 143.953125 225.550781 143.953125 C 239.542969 135.515625 255.6875 142.515625 255.6875 142.515625 C 247.972656 135.15625 225.910156 134.082031 213.710938 140.003906 C 201.691406 145.925781 187.164062 146.644531 186.984375 146.644531 C 186.625 146.644531 172.273438 145.925781 160.253906 140.003906 C 148.054688 133.902344 125.992188 134.976562 118.277344 142.515625 C 118.457031 142.335938 134.421875 135.515625 148.414062 143.953125 Z M 148.414062 143.953125 " fill-opacity="1" fill-rule="nonzero"/><path fill="#250d0f" d="M 129.9375 182.902344 C 136.035156 187.75 137.472656 187.570312 137.652344 187.570312 C 125.09375 190.621094 120.25 201.035156 120.25 201.035156 C 125.992188 199.238281 131.015625 201.75 142.675781 202.648438 C 154.335938 203.726562 161.152344 199.957031 161.152344 199.957031 C 161.152344 199.957031 164.558594 201.570312 171.195312 201.210938 C 177.835938 200.855469 182.5 196.007812 182.5 196.007812 C 178.910156 196.007812 172.8125 192.777344 170.480469 190.980469 C 168.148438 189.367188 166.351562 188.648438 166.351562 188.648438 L 169.941406 192.238281 C 169.941406 192.238281 169.941406 192.238281 155.769531 187.929688 C 141.597656 183.621094 136.035156 173.570312 125.273438 171.417969 C 114.332031 169.261719 110.742188 175.183594 110.742188 175.183594 C 115.226562 172.671875 118.996094 173.75 118.996094 173.75 C 110.027344 177.160156 105.71875 188.109375 105.71875 188.109375 C 111.101562 182.1875 123.480469 177.699219 129.9375 182.902344 Z M 129.9375 182.902344 " fill-opacity="1" fill-rule="nonzero"/><path fill="#250d0f" d="M 203.84375 324.347656 C 192.003906 325.964844 187.519531 325.785156 187.164062 325.605469 C 186.804688 325.605469 182.320312 325.785156 170.480469 324.347656 C 158.101562 322.734375 143.570312 300.476562 143.570312 300.476562 C 143.570312 300.476562 147.519531 310.886719 153.796875 320.21875 C 165.277344 338.351562 186.804688 336.554688 187.164062 336.375 C 187.519531 336.375 208.867188 338.351562 220.527344 320.21875 C 226.808594 310.886719 230.753906 300.476562 230.753906 300.476562 C 230.753906 300.476562 216.222656 322.734375 203.84375 324.347656 Z M 203.84375 324.347656 " fill-opacity="1" fill-rule="nonzero"/><path fill="#250d0f" d="M 115.046875 111.285156 C 107.335938 118.105469 92.984375 97.820312 92.984375 97.820312 C 101.59375 115.773438 113.074219 121.875 113.074219 121.875 C 125.09375 119.71875 128.144531 103.386719 128.683594 100.335938 C 128.683594 100.15625 128.503906 99.976562 128.324219 99.796875 C 125.8125 99.617188 123.480469 99.078125 121.148438 98 C 97.46875 87.050781 87.601562 66.230469 87.601562 66.230469 C 93.34375 98 122.761719 104.464844 115.046875 111.285156 Z M 115.046875 111.285156 " fill-opacity="1" fill-rule="nonzero"/><g clip-path="url(#id1)"><path fill="#250d0f" d="M 329.417969 128.15625 C 317.039062 133.722656 309.144531 143.773438 304.660156 152.390625 C 304.660156 144.132812 303.585938 111.824219 289.414062 90.820312 C 295.332031 69.460938 293.539062 47.5625 293.359375 46.125 L 292.460938 36.433594 L 289.414062 45.585938 C 285.464844 57.433594 280.445312 66.230469 275.0625 72.871094 C 273.984375 71.257812 271.652344 69.28125 266.988281 70 C 266.988281 70 275.242188 62.640625 275.957031 55.820312 C 275.957031 55.820312 271.472656 62.28125 260.171875 66.589844 C 260.171875 66.589844 284.210938 55.101562 282.058594 16.148438 C 282.058594 16.148438 274.523438 31.046875 241.695312 26.203125 C 208.867188 21.355469 183.394531 0.714844 154.15625 18.84375 C 136.933594 29.972656 141.238281 32.125 130.296875 35.714844 C 119.355469 39.304688 111.820312 40.5625 109.128906 53.84375 C 106.4375 67.128906 107.515625 68.203125 107.515625 68.203125 C 107.515625 68.203125 102.3125 70.539062 99.261719 73.050781 C 94.058594 66.410156 88.859375 57.433594 84.910156 45.585938 L 81.863281 36.433594 L 80.964844 46.125 C 80.785156 47.5625 78.992188 69.640625 84.910156 91 C 70.738281 112.003906 69.664062 144.3125 69.664062 152.570312 C 65.179688 143.953125 57.464844 133.902344 44.910156 128.335938 L 38.269531 125.285156 L 42.398438 131.207031 C 42.398438 131.386719 48.496094 140.363281 50.109375 152.75 C 51.007812 160.109375 53.878906 164.058594 56.390625 167.648438 C 58.542969 170.699219 60.15625 173.210938 60.335938 177.160156 C 60.335938 178.417969 60.335938 179.671875 60.335938 181.109375 C 60.335938 191.339844 60.15625 206.597656 70.738281 223.292969 C 80.785156 239.265625 82.9375 252.730469 84.015625 259.191406 C 84.195312 260.089844 84.195312 260.804688 84.375 261.523438 C 85.628906 268.164062 90.652344 274.449219 99.261719 274.449219 C 99.261719 274.449219 99.441406 274.449219 99.621094 274.449219 C 100.699219 280.910156 103.386719 287.011719 107.15625 293.117188 C 102.132812 299.039062 96.214844 302.449219 86.347656 301.550781 C 86.347656 301.550781 99.980469 309.988281 112.539062 301.015625 C 116.125 305.859375 120.070312 310.886719 124.019531 315.554688 C 130.835938 323.808594 137.292969 331.707031 140.699219 339.066406 C 150.386719 359.351562 185.90625 360.785156 187.519531 360.785156 L 187.519531 359.171875 L 187.519531 360.785156 C 188.957031 360.785156 224.652344 359.351562 234.339844 339.066406 C 237.75 331.707031 244.207031 323.988281 251.023438 315.554688 C 254.96875 310.707031 258.917969 305.859375 262.503906 301.015625 C 274.882812 309.988281 288.695312 301.550781 288.695312 301.550781 C 278.828125 302.449219 272.910156 299.039062 267.886719 293.117188 C 271.472656 287.011719 274.34375 280.910156 275.421875 274.449219 C 275.601562 274.449219 275.601562 274.449219 275.78125 274.449219 C 284.390625 274.449219 289.414062 268.164062 290.667969 261.523438 C 290.847656 260.804688 290.847656 260.089844 291.027344 259.191406 C 292.105469 252.730469 294.257812 239.265625 304.300781 223.292969 C 314.707031 206.597656 314.707031 191.339844 314.707031 181.109375 C 314.707031 179.671875 314.707031 178.238281 314.707031 177.160156 C 314.707031 173.210938 316.5 170.699219 318.652344 167.648438 C 321.164062 164.058594 324.035156 159.929688 324.929688 152.75 C 326.546875 140.363281 332.644531 131.207031 332.644531 131.207031 L 336.769531 125.285156 Z M 289.59375 56.359375 C 289.414062 73.769531 286.363281 109.488281 262.863281 122.59375 C 261.609375 122.773438 256.046875 123.308594 251.203125 119.539062 C 246.539062 115.773438 244.207031 108.949219 243.847656 99.257812 C 243.847656 98.539062 244.386719 97.820312 245.105469 97.640625 C 248.691406 96.925781 254.613281 95.128906 261.609375 90.640625 C 270.21875 85.4375 281.339844 75.203125 289.59375 56.359375 Z M 112.539062 90.640625 C 119.535156 94.949219 125.453125 96.925781 129.039062 97.640625 C 129.757812 97.820312 130.296875 98.539062 130.296875 99.257812 C 129.9375 108.949219 127.605469 115.773438 122.941406 119.539062 C 118.277344 123.308594 112.714844 122.773438 111.28125 122.59375 C 87.960938 109.308594 84.730469 73.769531 84.554688 56.359375 C 92.984375 75.203125 104.105469 85.4375 112.539062 90.640625 Z M 88.140625 260.804688 C 87.960938 260.269531 87.960938 259.371094 87.78125 258.652344 C 86.707031 252.011719 84.554688 238.011719 73.96875 221.316406 C 64.101562 205.699219 64.28125 191.160156 64.28125 181.46875 C 64.28125 180.03125 64.28125 178.597656 64.28125 177.339844 C 64.101562 172.132812 61.769531 168.902344 59.617188 165.671875 C 57.285156 162.261719 54.773438 158.851562 54.058594 152.570312 C 53.160156 145.566406 51.007812 139.644531 49.035156 135.335938 C 58.722656 141.621094 65.359375 150.953125 69.484375 157.953125 L 69.484375 158.132812 C 69.484375 158.132812 69.664062 158.3125 69.664062 158.3125 C 72.894531 163.878906 74.328125 168.003906 74.328125 168.003906 C 74.6875 167.648438 74.328125 164.773438 72.894531 160.824219 C 83.65625 169.261719 91.550781 181.648438 91.726562 181.648438 C 91.90625 185.058594 91.90625 188.289062 91.191406 190.800781 C 90.652344 192.597656 89.933594 195.648438 89.574219 199.238281 C 89.574219 198.699219 89.394531 198.339844 89.394531 197.800781 C 87.242188 183.621094 70.738281 167.824219 67.871094 164.953125 C 64.28125 153.105469 54.953125 145.210938 54.953125 145.210938 C 54.953125 145.210938 60.695312 155.261719 64.101562 166.75 C 65.539062 171.953125 66.972656 174.828125 68.230469 177.160156 C 69.664062 180.210938 70.5625 181.828125 70.203125 186.3125 C 70.203125 187.390625 70.023438 188.46875 70.023438 189.726562 C 69.84375 211.445312 78.273438 216.828125 78.273438 216.828125 C 71.097656 206.777344 73.429688 197.980469 73.96875 190.082031 C 73.96875 188.828125 74.148438 187.75 74.148438 186.671875 C 74.507812 180.929688 73.25 178.597656 71.636719 175.363281 C 71.636719 175.183594 71.457031 175.007812 71.457031 174.828125 C 74.507812 178.417969 78.273438 182.902344 80.964844 187.570312 C 79.53125 192.058594 75.402344 208.75 85.089844 220.957031 C 85.449219 223.292969 86.347656 225.265625 88.320312 227.0625 C 88.320312 227.777344 88.5 228.316406 88.679688 228.855469 C 89.21875 231.1875 89.933594 233.703125 91.011719 237.113281 C 93.523438 244.832031 96.75 255.421875 98.722656 271.039062 C 92.265625 270.140625 89.039062 265.292969 88.140625 260.804688 Z M 271.117188 272.113281 C 270.398438 278.039062 268.066406 283.78125 264.65625 289.527344 C 262.683594 286.652344 260.710938 283.601562 258.738281 280.011719 C 250.664062 266.550781 240.441406 259.730469 221.785156 264.394531 C 202.949219 269.242188 201.691406 280.910156 201.691406 280.910156 C 204.023438 284.679688 208.152344 285.398438 216.761719 283.960938 C 225.371094 282.527344 240.261719 268.882812 253.894531 291.5 C 255.507812 294.191406 257.300781 296.347656 259.097656 298.140625 C 255.507812 303.167969 251.5625 308.015625 247.617188 312.859375 C 240.621094 321.296875 234.160156 329.375 230.394531 337.09375 C 221.964844 355.042969 188.957031 356.660156 187.164062 356.660156 C 185.367188 356.660156 152.359375 355.042969 143.929688 337.273438 C 140.164062 329.554688 133.703125 321.476562 126.707031 313.039062 C 122.761719 308.195312 118.816406 303.347656 115.226562 298.320312 C 117.023438 296.527344 118.816406 294.371094 120.429688 291.679688 C 134.0625 268.882812 148.953125 282.707031 157.5625 284.140625 C 166.175781 285.578125 170.300781 284.679688 172.632812 281.089844 C 172.632812 281.089844 171.195312 269.421875 152.539062 264.574219 C 133.703125 259.730469 123.660156 266.730469 115.585938 280.191406 C 113.433594 283.601562 111.640625 286.832031 109.667969 289.707031 C 106.257812 283.960938 103.925781 278.039062 103.210938 272.292969 C 101.234375 255.0625 97.46875 243.394531 94.957031 235.496094 C 93.882812 232.265625 93.164062 229.753906 92.625 227.597656 C 91.011719 220.238281 93.164062 197.800781 95.136719 191.878906 C 96.570312 187.570312 96.035156 182.1875 95.675781 176.800781 C 95.496094 173.570312 95.136719 170.699219 95.316406 168.183594 C 95.496094 164.953125 97.828125 157.953125 101.414062 148.980469 C 102.492188 146.285156 103.03125 143.414062 103.03125 140.183594 C 102.851562 133.542969 104.285156 126.902344 105.183594 123.667969 C 106.617188 124.746094 108.230469 125.644531 109.847656 126.542969 L 110.027344 126.722656 L 110.382812 126.722656 C 110.5625 126.722656 111.820312 127.078125 113.613281 127.078125 C 116.664062 127.078125 121.328125 126.363281 125.632812 122.953125 C 131.730469 117.925781 134.78125 108.949219 134.601562 96.207031 C 134.601562 95.128906 133.703125 94.230469 132.808594 94.230469 C 132.808594 94.230469 125.453125 93.515625 116.304688 88.128906 C 118.816406 86.691406 124.375 83.640625 127.605469 83.28125 C 131.910156 82.921875 146.800781 87.050781 146.800781 87.050781 C 146.800781 87.050781 143.75 85.078125 142.496094 80.769531 C 142.496094 80.769531 148.59375 82.027344 152.359375 84.71875 C 155.949219 87.410156 168.863281 95.308594 170.121094 97.105469 L 165.097656 86.511719 C 165.097656 86.511719 176.039062 88.128906 187.519531 100.15625 C 187.519531 100.15625 197.566406 88.667969 210.125 86.511719 C 210.125 86.511719 205.640625 94.589844 204.921875 96.925781 C 204.921875 96.925781 210.125 92.257812 213.53125 90.101562 C 216.941406 88.128906 228.601562 81.488281 232.367188 80.769531 C 232.367188 80.769531 230.933594 84.71875 228.601562 86.691406 C 228.601562 86.691406 251.382812 78.792969 258.199219 88.308594 C 249.230469 93.515625 242.234375 94.230469 242.054688 94.230469 C 240.976562 94.230469 240.261719 95.128906 240.261719 96.207031 C 240.082031 108.949219 243.132812 117.925781 249.230469 122.953125 C 253.355469 126.363281 258.199219 127.078125 261.25 127.078125 C 263.222656 127.078125 264.476562 126.902344 264.476562 126.722656 L 264.835938 126.722656 L 265.015625 126.542969 C 266.628906 125.644531 268.066406 124.746094 269.679688 123.667969 C 270.578125 126.902344 271.832031 133.542969 271.832031 140.183594 C 271.832031 143.234375 272.371094 146.105469 273.449219 148.980469 C 277.214844 157.953125 279.367188 164.953125 279.546875 168.183594 C 279.726562 170.699219 279.367188 173.75 279.1875 176.800781 C 278.648438 182.1875 278.289062 187.570312 279.726562 191.878906 C 281.699219 197.800781 283.671875 220.238281 282.238281 227.597656 C 281.699219 229.753906 280.980469 232.265625 279.90625 235.496094 C 276.855469 243.035156 273.089844 254.882812 271.117188 272.113281 Z M 320.265625 152.210938 C 319.550781 158.492188 317.039062 161.902344 314.707031 165.3125 C 312.554688 168.542969 310.222656 171.953125 310.042969 176.980469 C 310.042969 178.238281 310.042969 179.671875 310.042969 181.109375 C 310.042969 190.800781 310.222656 205.339844 300.355469 220.957031 C 289.773438 237.652344 287.617188 251.652344 286.542969 258.292969 C 286.363281 259.191406 286.363281 259.910156 286.183594 260.449219 C 285.285156 264.933594 282.058594 269.78125 275.601562 269.960938 C 277.574219 254.34375 280.980469 243.933594 283.3125 236.035156 C 284.390625 232.625 285.285156 230.113281 285.644531 227.777344 C 285.824219 227.238281 285.824219 226.703125 286.003906 225.984375 C 287.976562 224.367188 288.875 222.214844 289.234375 219.878906 C 298.921875 207.675781 294.792969 190.980469 293.359375 186.492188 C 296.050781 181.828125 299.816406 177.339844 302.867188 173.75 C 302.867188 173.929688 302.6875 174.109375 302.6875 174.289062 C 301.074219 177.519531 299.996094 179.851562 300.175781 185.597656 C 300.175781 186.671875 300.355469 187.929688 300.355469 189.007812 C 300.894531 196.90625 303.226562 205.699219 296.050781 215.753906 C 296.050781 215.753906 304.480469 210.367188 304.300781 188.648438 C 304.300781 187.570312 304.121094 186.316406 304.121094 185.238281 C 303.941406 180.570312 304.660156 178.953125 306.097656 176.082031 C 307.171875 173.75 308.605469 170.878906 310.222656 165.671875 C 313.449219 154.363281 319.191406 144.3125 319.371094 144.132812 C 319.371094 144.132812 310.222656 152.03125 306.453125 163.878906 C 303.585938 166.570312 286.902344 182.546875 284.929688 196.726562 C 284.929688 197.265625 284.75 197.621094 284.75 198.160156 C 284.210938 194.570312 283.671875 191.519531 283.132812 189.726562 C 282.417969 187.210938 282.238281 183.980469 282.597656 180.570312 C 282.597656 180.390625 290.488281 168.183594 301.433594 159.75 C 299.996094 163.878906 299.636719 166.75 299.996094 166.929688 C 299.996094 166.929688 301.433594 162.800781 304.660156 157.234375 C 304.660156 157.234375 304.839844 157.054688 304.839844 157.054688 L 304.839844 156.875 C 308.964844 149.695312 315.601562 140.363281 325.289062 134.261719 C 323.316406 139.285156 321.164062 145.210938 320.265625 152.210938 Z M 320.265625 152.210938 " fill-opacity="1" fill-rule="nonzero"/></g><path fill="#250d0f" d="M 193.621094 245.90625 C 195.054688 248.960938 195.773438 257.394531 195.773438 257.394531 C 197.027344 249.320312 195.234375 244.113281 194.875 237.113281 C 194.515625 230.113281 197.027344 224.90625 198.105469 218.984375 C 199 213.058594 196.132812 206.957031 196.132812 206.957031 C 196.132812 206.957031 198.285156 215.933594 194.875 224.90625 C 191.289062 234.242188 192.183594 242.855469 193.621094 245.90625 Z M 193.621094 245.90625 " fill-opacity="1" fill-rule="nonzero"/><path fill="#250d0f" d="M 237.75 223.46875 C 237.75 223.46875 252.101562 221.136719 261.609375 209.289062 C 261.609375 209.289062 250.664062 215.753906 244.746094 215.753906 C 244.746094 215.753906 252.460938 211.625 254.433594 209.109375 C 254.433594 209.109375 240.621094 218.625 230.035156 214.855469 C 219.453125 211.085938 209.046875 202.648438 200.257812 203.367188 C 200.257812 203.367188 217.300781 231.007812 239.722656 232.265625 C 262.144531 233.523438 265.375 213.597656 265.375 213.597656 C 265.375 213.597656 252.28125 226.164062 237.75 223.46875 Z M 237.75 223.46875 " fill-opacity="1" fill-rule="nonzero"/><path fill="#250d0f" d="M 255.328125 173.75 C 255.328125 173.75 259.097656 172.671875 263.582031 175.183594 C 263.582031 175.183594 259.992188 169.261719 249.050781 171.417969 C 238.109375 173.570312 232.546875 183.621094 218.554688 187.929688 C 204.382812 192.238281 204.382812 192.238281 204.382812 192.238281 L 207.972656 188.648438 C 207.972656 188.648438 206.175781 189.367188 203.84375 190.980469 C 201.511719 192.597656 195.414062 196.007812 191.828125 196.007812 C 191.828125 196.007812 196.3125 200.675781 203.128906 201.210938 C 209.765625 201.75 213.171875 199.957031 213.171875 199.957031 C 213.171875 199.957031 219.988281 203.726562 231.648438 202.648438 C 243.308594 201.570312 248.332031 199.238281 254.074219 201.035156 C 254.074219 201.035156 249.230469 190.621094 236.671875 187.570312 C 236.851562 187.570312 238.109375 187.75 244.386719 182.902344 C 251.023438 177.699219 263.222656 182.1875 268.785156 188.289062 C 268.785156 188.289062 264.296875 177.339844 255.328125 173.75 Z M 255.328125 173.75 " fill-opacity="1" fill-rule="nonzero"/><path fill="#250d0f" d="M 207.972656 255.601562 C 204.921875 259.550781 201.511719 257.933594 198.105469 267.808594 C 194.695312 277.679688 190.570312 279.472656 187.164062 279.472656 C 183.753906 279.472656 179.449219 277.5 176.21875 267.808594 C 172.8125 257.933594 169.402344 259.550781 166.351562 255.601562 C 163.304688 251.652344 165.097656 244.832031 165.097656 244.832031 C 157.921875 262.421875 171.015625 256.320312 174.964844 271.933594 C 178.011719 283.601562 186.445312 282.347656 187.164062 282.167969 C 188.058594 282.347656 196.492188 283.601562 199.359375 271.933594 C 203.308594 256.320312 216.402344 262.421875 209.226562 244.832031 C 209.40625 244.832031 211.019531 251.652344 207.972656 255.601562 Z M 207.972656 255.601562 " fill-opacity="1" fill-rule="nonzero"/><path fill="#250d0f" d="M 171.734375 288.269531 C 159.714844 288.269531 142.675781 289.707031 134.421875 282.167969 C 134.421875 282.167969 135.859375 286.652344 142.316406 288.449219 C 160.433594 318.964844 185.546875 317.527344 187.164062 317.347656 C 188.777344 317.527344 213.710938 318.964844 232.007812 288.449219 C 238.46875 286.652344 239.902344 282.167969 239.902344 282.167969 C 231.648438 289.707031 214.609375 288.269531 202.589844 288.269531 C 191.109375 288.269531 187.519531 291.5 187.164062 291.859375 C 186.984375 291.5 183.394531 288.269531 171.734375 288.269531 Z M 199.71875 313.21875 L 199.539062 312.324219 C 199.539062 312.324219 199.359375 314.296875 193.980469 314.835938 C 188.417969 315.375 188.238281 315.195312 188.238281 315.195312 L 187.164062 313.578125 L 187.164062 313.21875 L 187.164062 313.398438 L 187.164062 313.21875 L 187.164062 313.578125 L 186.265625 315.195312 C 186.265625 315.195312 185.90625 315.375 180.523438 314.835938 C 174.964844 314.296875 174.964844 312.324219 174.964844 312.324219 L 174.785156 313.21875 C 171.554688 313.039062 168.148438 310.347656 168.148438 310.347656 C 171.015625 306.757812 178.011719 310.886719 178.011719 310.886719 C 180.167969 309.808594 185.90625 309.449219 186.085938 310.527344 C 186.265625 311.425781 186.984375 311.425781 187.164062 311.425781 C 187.339844 311.425781 188.058594 311.425781 188.238281 310.527344 C 188.417969 309.449219 194.335938 309.808594 196.3125 310.886719 C 196.3125 310.886719 203.308594 306.757812 206.175781 310.347656 C 206.175781 310.527344 202.949219 313.039062 199.71875 313.21875 Z M 187.164062 296.167969 C 189.316406 293.835938 197.746094 291.679688 198.824219 292.039062 C 199.898438 292.398438 201.511719 296.707031 201.511719 296.707031 L 201.511719 292.398438 L 209.945312 291.679688 L 211.917969 295.628906 L 212.097656 292.039062 L 221.785156 291.140625 L 221.964844 291.140625 C 221.605469 292.757812 221.066406 295.269531 219.453125 296.527344 C 219.453125 296.527344 219.09375 295.269531 218.734375 295.269531 C 218.734375 295.269531 217.300781 300.296875 215.148438 301.550781 C 215.148438 301.550781 212.636719 298.5 212.636719 297.605469 C 212.636719 297.605469 212.636719 299.039062 212.097656 299.757812 C 211.558594 300.296875 202.769531 301.550781 202.589844 301.371094 C 202.410156 301.195312 202.050781 300.117188 202.050781 300.117188 C 202.050781 300.117188 200.257812 302.628906 194.515625 302.808594 C 189.316406 302.988281 188.058594 303.167969 187.519531 301.910156 L 187.519531 301.371094 C 187.519531 301.550781 187.519531 301.550781 187.519531 301.730469 C 187.519531 301.550781 187.519531 301.550781 187.519531 301.371094 L 187.519531 301.910156 C 186.984375 303.347656 185.726562 302.988281 180.523438 302.808594 C 174.785156 302.628906 172.992188 300.117188 172.992188 300.117188 C 172.992188 300.117188 172.632812 301.195312 172.453125 301.371094 C 172.273438 301.550781 163.484375 300.476562 162.945312 299.757812 C 162.046875 298.859375 162.046875 297.425781 162.046875 297.425781 C 162.046875 298.320312 159.535156 301.371094 159.535156 301.371094 C 157.382812 300.117188 155.949219 295.089844 155.949219 295.089844 C 155.589844 295.089844 155.230469 296.347656 155.230469 296.347656 C 153.617188 295.089844 153.078125 292.578125 152.71875 290.960938 L 152.898438 290.960938 L 162.585938 291.859375 L 162.765625 295.449219 L 164.738281 291.5 L 173.171875 292.21875 L 173.171875 296.527344 C 173.171875 296.527344 174.785156 292.21875 175.859375 291.859375 C 176.578125 291.679688 185.007812 293.65625 187.164062 296.167969 Z M 187.164062 296.167969 " fill-opacity="1" fill-rule="nonzero"/><path fill="#250d0f" d="M 246.179688 99.796875 C 246 99.796875 245.820312 99.976562 245.820312 100.335938 C 246.359375 103.207031 249.410156 119.71875 261.429688 121.875 C 261.429688 121.875 272.910156 115.773438 281.519531 97.820312 C 281.519531 97.820312 267.167969 117.925781 259.457031 111.285156 C 251.742188 104.464844 281.160156 98 286.902344 66.230469 C 286.902344 66.230469 277.035156 87.050781 253.355469 98.179688 C 251.023438 99.078125 248.691406 99.796875 246.179688 99.796875 Z M 246.179688 99.796875 " fill-opacity="1" fill-rule="nonzero"/></svg>