<svg xmlns="http://www.w3.org/2000/svg" xmlns:xlink="http://www.w3.org/1999/xlink" width="500" zoomAndPan="magnify" viewBox="0 0 375 187.499995" height="250" preserveAspectRatio="xMidYMid meet" version="1.0"><defs><g/><clipPath id="id1"><path d="M 221 40 L 247.554688 40 L 247.554688 68 L 221 68 Z M 221 40 " clip-rule="nonzero"/></clipPath><clipPath id="id2"><path d="M 156 113 L 168 113 L 168 124.183594 L 156 124.183594 Z M 156 113 " clip-rule="nonzero"/></clipPath><clipPath id="id3"><path d="M 127.125 48 L 188 48 L 188 108 L 127.125 108 Z M 127.125 48 " clip-rule="nonzero"/></clipPath></defs><path fill="#bdbfc1" d="M 178.949219 55.003906 C 181.523438 56.371094 186.28125 55.203125 189.410156 56.039062 C 190.722656 58.828125 190.371094 63.394531 190.351562 66.855469 C 190.296875 78.152344 188.480469 76.71875 209.164062 76.714844 C 214.460938 76.710938 215.355469 74.847656 215.304688 69.597656 C 215.132812 51.910156 216.816406 52.152344 206.433594 52.125 C 202.203125 52.117188 197.320312 52.625 193.429688 51.484375 C 192.742188 48.304688 193.597656 44.429688 192.707031 41.757812 C 191.015625 41.160156 181.316406 40.921875 179.765625 41.910156 C 177.917969 43.089844 177.679688 52.960938 178.949219 55.003906 Z M 178.949219 55.003906 " fill-opacity="1" fill-rule="evenodd"/><path fill="#bdbfc1" d="M 158.445312 43.796875 C 158.832031 47.867188 157.617188 50.597656 159.117188 51.953125 C 160.867188 53.398438 168.390625 52.742188 170.496094 51.5625 C 171.925781 49.542969 172.578125 41.304688 171.164062 39.871094 C 169.984375 38.464844 167.882812 39.269531 165.390625 39.054688 C 164.980469 36.246094 165.769531 27.457031 167.019531 25.257812 C 170.304688 19.480469 181.640625 29.195312 179.941406 12.035156 C 176.761719 11.851562 173.277344 12.535156 170.308594 13.160156 C 165.457031 14.1875 166.878906 15.007812 165.742188 19.195312 C 164.726562 22.941406 158.40625 22.269531 150.777344 24.945312 C 145.761719 26.707031 145.722656 33.5 144.304688 39.164062 C 142.039062 48.214844 147.992188 42.984375 158.445312 43.796875 Z M 158.445312 43.796875 " fill-opacity="1" fill-rule="evenodd"/><g clip-path="url(#id1)"><path fill="#3da0ad" d="M 229.570312 55.105469 C 228.089844 56.472656 224.570312 55.078125 221.945312 56.128906 C 221.132812 58.140625 220.761719 65 222.453125 66.691406 C 224.148438 68.144531 229.925781 67.738281 232.515625 67.230469 C 233.445312 64.46875 232.765625 62.375 232.980469 59.460938 C 236.269531 57.929688 246.464844 60.941406 247.347656 57.515625 C 248.035156 54.820312 246.894531 44.292969 245.519531 43.097656 C 244.242188 41.992188 234.011719 40.179688 231.757812 40.910156 C 229.3125 41.703125 230.175781 45.066406 230.355469 47.738281 C 230.589844 51.332031 231.230469 53.78125 229.570312 55.105469 Z M 229.570312 55.105469 " fill-opacity="1" fill-rule="evenodd"/></g><path fill="#3da0ad" d="M 200.433594 14.882812 C 198.730469 13.875 195.695312 14.234375 193.320312 14.273438 C 190.441406 14.324219 187.777344 13.828125 186.40625 15.773438 C 184.585938 18.230469 187.070312 23.046875 183.488281 24.378906 L 179.121094 24.980469 C 176.425781 25.113281 174.917969 24.796875 173.792969 26.703125 C 172.761719 28.046875 172.183594 34.925781 173.105469 36.765625 C 175.070312 37.820312 183.527344 37.375 185.71875 36.269531 C 187.210938 34.15625 186.628906 29.527344 187.339844 26.914062 C 189.816406 25.921875 190.753906 25.960938 194.167969 26.074219 C 195.601562 26.203125 196.644531 26.375 197.707031 26.917969 C 200.003906 35.5 195.171875 45.582031 201.800781 46.785156 C 205.332031 47.425781 222.765625 47.898438 224.308594 45.964844 C 225.804688 44.085938 225.414062 27.199219 222.777344 24.875 C 220.808594 23.136719 209.914062 23.242188 206.40625 23.136719 C 198.886719 22.921875 201.855469 21.089844 201.074219 16.632812 L 200.632812 15.285156 C 200.597656 15.183594 200.515625 15.007812 200.433594 14.882812 Z M 200.433594 14.882812 " fill-opacity="1" fill-rule="evenodd"/><g clip-path="url(#id2)"><path fill="#3da0ad" d="M 157.679688 122.679688 C 159.75 123.632812 164.628906 124.515625 167.484375 124.023438 C 167.832031 121.664062 167.191406 116.21875 166.605469 114.300781 C 164.304688 113.542969 159.675781 113.113281 156.738281 113.320312 C 156.261719 116.042969 157.070312 120.152344 157.679688 122.679688 Z M 157.679688 122.679688 " fill-opacity="1" fill-rule="evenodd"/></g><path fill="#3da0ad" d="M 236.398438 35.21875 L 235.632812 28.042969 C 233.382812 26.832031 229.886719 26.742188 227.164062 26.960938 C 226.796875 34.925781 227.910156 36.078125 236.398438 35.21875 Z M 236.398438 35.21875 " fill-opacity="1" fill-rule="evenodd"/><g clip-path="url(#id3)"><path fill="#3da0ad" d="M 139.863281 72.863281 C 141.324219 75.535156 139.519531 80.359375 140.871094 83.28125 C 142.757812 84.609375 150.632812 84.992188 152 83.433594 C 154.078125 81.5625 152.433594 74.308594 153.605469 71.476562 C 155.6875 71.332031 158.53125 70.925781 159.726562 72.078125 C 160.976562 73.523438 160.945312 88.976562 159.589844 90.882812 C 156.109375 94.242188 149.066406 87.742188 148.972656 95.207031 C 148.945312 97.285156 149.386719 104.433594 150.082031 105.746094 C 151.304688 108.070312 160.417969 108.550781 162.773438 107.371094 C 162.863281 107.246094 162.964844 106.886719 162.992188 106.964844 L 163.421875 101.800781 C 162.902344 92.832031 164.101562 96.359375 181.875 96.238281 C 188.976562 96.1875 187.347656 91.445312 187.304688 82.144531 C 187.273438 76.082031 188.824219 68.699219 182.378906 68.023438 C 177.34375 67.492188 167.464844 69.597656 163.707031 67.5 C 161.976562 64.554688 164.519531 59.851562 162.542969 57.769531 C 161.117188 56.371094 152.355469 57.386719 151.433594 58.3125 C 149.273438 61.421875 152.054688 66 149.121094 68.039062 C 147.570312 68.832031 145.125 68.910156 143.59375 67.996094 L 142.839844 66.289062 C 142.199219 63.296875 143.9375 52.921875 143.691406 51.003906 C 143.246094 47.496094 139.96875 49.007812 137.335938 49.667969 C 127.925781 52.023438 129.289062 50.789062 127.40625 67.085938 C 126.917969 71.347656 126.542969 72.667969 130.988281 72.5625 C 133.789062 72.5 137.503906 71.730469 139.863281 72.863281 Z M 139.863281 72.863281 " fill-opacity="1" fill-rule="evenodd"/></g><g fill="#3da0ad" fill-opacity="1"><g transform="translate(29.024323, 171.916592)"><g><path d="M 23.828125 -5.765625 L 23.828125 0 L 2.640625 0 L 2.640625 -26.390625 L 23.34375 -26.390625 L 23.34375 -20.625 L 10.03125 -20.625 L 10.03125 -16.171875 L 21.75 -16.171875 L 21.75 -10.59375 L 10.03125 -10.59375 L 10.03125 -5.765625 Z M 23.828125 -5.765625 "/></g></g></g><g fill="#3da0ad" fill-opacity="1"><g transform="translate(53.411211, 171.916592)"><g><path d="M 9.734375 0.34375 C 8.015625 0.34375 6.328125 0.148438 4.671875 -0.234375 C 3.015625 -0.628906 1.679688 -1.140625 0.671875 -1.765625 L 2.828125 -6.671875 C 3.753906 -6.097656 4.859375 -5.640625 6.140625 -5.296875 C 7.421875 -4.953125 8.691406 -4.78125 9.953125 -4.78125 C 11.109375 -4.78125 11.929688 -4.898438 12.421875 -5.140625 C 12.910156 -5.378906 13.15625 -5.726562 13.15625 -6.1875 C 13.15625 -6.632812 12.859375 -6.953125 12.265625 -7.140625 C 11.679688 -7.328125 10.75 -7.507812 9.46875 -7.6875 C 7.832031 -7.894531 6.441406 -8.160156 5.296875 -8.484375 C 4.148438 -8.804688 3.160156 -9.40625 2.328125 -10.28125 C 1.503906 -11.164062 1.09375 -12.398438 1.09375 -13.984375 C 1.09375 -15.296875 1.484375 -16.457031 2.265625 -17.46875 C 3.046875 -18.488281 4.179688 -19.296875 5.671875 -19.890625 C 7.171875 -20.484375 8.960938 -20.78125 11.046875 -20.78125 C 12.523438 -20.78125 13.992188 -20.628906 15.453125 -20.328125 C 16.910156 -20.023438 18.128906 -19.597656 19.109375 -19.046875 L 16.96875 -14.171875 C 15.15625 -15.179688 13.191406 -15.6875 11.078125 -15.6875 C 9.953125 -15.6875 9.125 -15.550781 8.59375 -15.28125 C 8.0625 -15.019531 7.796875 -14.675781 7.796875 -14.25 C 7.796875 -13.769531 8.082031 -13.4375 8.65625 -13.25 C 9.238281 -13.0625 10.195312 -12.867188 11.53125 -12.671875 C 13.21875 -12.421875 14.613281 -12.128906 15.71875 -11.796875 C 16.820312 -11.472656 17.78125 -10.875 18.59375 -10 C 19.414062 -9.132812 19.828125 -7.925781 19.828125 -6.375 C 19.828125 -5.09375 19.4375 -3.941406 18.65625 -2.921875 C 17.882812 -1.898438 16.738281 -1.097656 15.21875 -0.515625 C 13.695312 0.0546875 11.867188 0.34375 9.734375 0.34375 Z M 9.734375 0.34375 "/></g></g></g><g fill="#3da0ad" fill-opacity="1"><g transform="translate(73.086531, 171.916592)"><g><path d="M 15.15625 -20.78125 C 17.019531 -20.78125 18.710938 -20.34375 20.234375 -19.46875 C 21.753906 -18.601562 22.957031 -17.375 23.84375 -15.78125 C 24.738281 -14.1875 25.1875 -12.332031 25.1875 -10.21875 C 25.1875 -8.101562 24.738281 -6.25 23.84375 -4.65625 C 22.957031 -3.0625 21.753906 -1.828125 20.234375 -0.953125 C 18.710938 -0.0859375 17.019531 0.34375 15.15625 0.34375 C 12.769531 0.34375 10.875 -0.375 9.46875 -1.8125 L 9.46875 7.3125 L 2.296875 7.3125 L 2.296875 -20.4375 L 9.125 -20.4375 L 9.125 -18.40625 C 10.457031 -19.988281 12.46875 -20.78125 15.15625 -20.78125 Z M 13.65625 -5.359375 C 14.90625 -5.359375 15.929688 -5.789062 16.734375 -6.65625 C 17.546875 -7.519531 17.953125 -8.707031 17.953125 -10.21875 C 17.953125 -11.726562 17.546875 -12.914062 16.734375 -13.78125 C 15.929688 -14.644531 14.90625 -15.078125 13.65625 -15.078125 C 12.394531 -15.078125 11.359375 -14.644531 10.546875 -13.78125 C 9.742188 -12.914062 9.34375 -11.726562 9.34375 -10.21875 C 9.34375 -8.707031 9.742188 -7.519531 10.546875 -6.65625 C 11.359375 -5.789062 12.394531 -5.359375 13.65625 -5.359375 Z M 13.65625 -5.359375 "/></g></g></g><g fill="#3da0ad" fill-opacity="1"><g transform="translate(98.340343, 171.916592)"><g><path d="M 9.125 -17.984375 C 9.851562 -18.910156 10.800781 -19.609375 11.96875 -20.078125 C 13.132812 -20.546875 14.472656 -20.78125 15.984375 -20.78125 L 15.984375 -14.328125 C 15.328125 -14.398438 14.785156 -14.4375 14.359375 -14.4375 C 12.828125 -14.4375 11.628906 -14.019531 10.765625 -13.1875 C 9.898438 -12.363281 9.46875 -11.097656 9.46875 -9.390625 L 9.46875 0 L 2.296875 0 L 2.296875 -20.4375 L 9.125 -20.4375 Z M 9.125 -17.984375 "/></g></g></g><g fill="#3da0ad" fill-opacity="1"><g transform="translate(114.095643, 171.916592)"><g><path d="M 2.296875 -20.4375 L 9.46875 -20.4375 L 9.46875 0 L 2.296875 0 Z M 5.875 -22.703125 C 4.570312 -22.703125 3.515625 -23.066406 2.703125 -23.796875 C 1.898438 -24.523438 1.5 -25.425781 1.5 -26.5 C 1.5 -27.582031 1.898438 -28.488281 2.703125 -29.21875 C 3.515625 -29.945312 4.570312 -30.3125 5.875 -30.3125 C 7.1875 -30.3125 8.242188 -29.960938 9.046875 -29.265625 C 9.847656 -28.578125 10.25 -27.695312 10.25 -26.625 C 10.25 -25.488281 9.847656 -24.550781 9.046875 -23.8125 C 8.242188 -23.070312 7.1875 -22.703125 5.875 -22.703125 Z M 5.875 -22.703125 "/></g></g></g><g fill="#3da0ad" fill-opacity="1"><g transform="translate(124.950908, 171.916592)"><g><path d="M 16.40625 -0.828125 C 15.800781 -0.453125 15.0625 -0.164062 14.1875 0.03125 C 13.320312 0.238281 12.398438 0.34375 11.421875 0.34375 C 8.753906 0.34375 6.703125 -0.304688 5.265625 -1.609375 C 3.835938 -2.921875 3.125 -4.875 3.125 -7.46875 L 3.125 -14.328125 L 0.15625 -14.328125 L 0.15625 -19.6875 L 3.125 -19.6875 L 3.125 -25 L 10.296875 -25 L 10.296875 -19.6875 L 14.96875 -19.6875 L 14.96875 -14.328125 L 10.296875 -14.328125 L 10.296875 -7.546875 C 10.296875 -6.816406 10.488281 -6.242188 10.875 -5.828125 C 11.269531 -5.410156 11.789062 -5.203125 12.4375 -5.203125 C 13.269531 -5.203125 14 -5.414062 14.625 -5.84375 Z M 16.40625 -0.828125 "/></g></g></g><g fill="#3da0ad" fill-opacity="1"><g transform="translate(140.856976, 171.916592)"><g/></g></g><g fill="#3da0ad" fill-opacity="1"><g transform="translate(150.883004, 171.916592)"><g><path d="M 11.921875 0.53125 C 9.773438 0.53125 7.695312 0.265625 5.6875 -0.265625 C 3.675781 -0.796875 2.046875 -1.5 0.796875 -2.375 L 3.25 -7.875 C 4.425781 -7.101562 5.789062 -6.476562 7.34375 -6 C 8.90625 -5.519531 10.441406 -5.28125 11.953125 -5.28125 C 14.816406 -5.28125 16.25 -5.992188 16.25 -7.421875 C 16.25 -8.179688 15.835938 -8.742188 15.015625 -9.109375 C 14.203125 -9.472656 12.890625 -9.851562 11.078125 -10.25 C 9.097656 -10.675781 7.441406 -11.132812 6.109375 -11.625 C 4.773438 -12.113281 3.628906 -12.898438 2.671875 -13.984375 C 1.722656 -15.066406 1.25 -16.523438 1.25 -18.359375 C 1.25 -19.972656 1.6875 -21.425781 2.5625 -22.71875 C 3.445312 -24.007812 4.757812 -25.03125 6.5 -25.78125 C 8.25 -26.539062 10.394531 -26.921875 12.9375 -26.921875 C 14.664062 -26.921875 16.367188 -26.722656 18.046875 -26.328125 C 19.734375 -25.941406 21.222656 -25.375 22.515625 -24.625 L 20.203125 -19.078125 C 17.691406 -20.429688 15.253906 -21.109375 12.890625 -21.109375 C 11.410156 -21.109375 10.332031 -20.890625 9.65625 -20.453125 C 8.976562 -20.015625 8.640625 -19.441406 8.640625 -18.734375 C 8.640625 -18.035156 9.039062 -17.507812 9.84375 -17.15625 C 10.644531 -16.800781 11.9375 -16.4375 13.71875 -16.0625 C 15.726562 -15.632812 17.394531 -15.175781 18.71875 -14.6875 C 20.039062 -14.195312 21.1875 -13.414062 22.15625 -12.34375 C 23.125 -11.28125 23.609375 -9.832031 23.609375 -8 C 23.609375 -6.414062 23.164062 -4.976562 22.28125 -3.6875 C 21.40625 -2.40625 20.085938 -1.378906 18.328125 -0.609375 C 16.566406 0.148438 14.429688 0.53125 11.921875 0.53125 Z M 11.921875 0.53125 "/></g></g></g><g fill="#3da0ad" fill-opacity="1"><g transform="translate(174.327587, 171.916592)"><g><path d="M 12.75 0.34375 C 10.476562 0.34375 8.453125 -0.109375 6.671875 -1.015625 C 4.890625 -1.921875 3.5 -3.175781 2.5 -4.78125 C 1.507812 -6.394531 1.015625 -8.21875 1.015625 -10.25 C 1.015625 -12.289062 1.507812 -14.109375 2.5 -15.703125 C 3.5 -17.296875 4.890625 -18.539062 6.671875 -19.4375 C 8.453125 -20.332031 10.476562 -20.78125 12.75 -20.78125 C 15.0625 -20.78125 17.054688 -20.28125 18.734375 -19.28125 C 20.421875 -18.289062 21.613281 -16.914062 22.3125 -15.15625 L 16.78125 -12.328125 C 15.851562 -14.160156 14.492188 -15.078125 12.703125 -15.078125 C 11.421875 -15.078125 10.359375 -14.648438 9.515625 -13.796875 C 8.671875 -12.941406 8.25 -11.757812 8.25 -10.25 C 8.25 -8.71875 8.671875 -7.519531 9.515625 -6.65625 C 10.359375 -5.789062 11.421875 -5.359375 12.703125 -5.359375 C 14.492188 -5.359375 15.851562 -6.273438 16.78125 -8.109375 L 22.3125 -5.28125 C 21.613281 -3.519531 20.421875 -2.140625 18.734375 -1.140625 C 17.054688 -0.148438 15.0625 0.34375 12.75 0.34375 Z M 12.75 0.34375 "/></g></g></g><g fill="#3da0ad" fill-opacity="1"><g transform="translate(196.113697, 171.916592)"><g><path d="M 23.1875 -10.1875 C 23.1875 -10.132812 23.148438 -9.539062 23.078125 -8.40625 L 8.21875 -8.40625 C 8.519531 -7.351562 9.101562 -6.539062 9.96875 -5.96875 C 10.832031 -5.40625 11.921875 -5.125 13.234375 -5.125 C 14.210938 -5.125 15.0625 -5.257812 15.78125 -5.53125 C 16.5 -5.8125 17.222656 -6.269531 17.953125 -6.90625 L 21.71875 -2.984375 C 19.726562 -0.765625 16.820312 0.34375 13 0.34375 C 10.613281 0.34375 8.515625 -0.109375 6.703125 -1.015625 C 4.898438 -1.921875 3.5 -3.175781 2.5 -4.78125 C 1.507812 -6.394531 1.015625 -8.21875 1.015625 -10.25 C 1.015625 -12.257812 1.5 -14.0625 2.46875 -15.65625 C 3.4375 -17.257812 4.773438 -18.515625 6.484375 -19.421875 C 8.191406 -20.328125 10.113281 -20.78125 12.25 -20.78125 C 14.289062 -20.78125 16.140625 -20.359375 17.796875 -19.515625 C 19.453125 -18.671875 20.765625 -17.445312 21.734375 -15.84375 C 22.703125 -14.25 23.1875 -12.363281 23.1875 -10.1875 Z M 12.296875 -15.6875 C 11.179688 -15.6875 10.253906 -15.367188 9.515625 -14.734375 C 8.773438 -14.109375 8.304688 -13.253906 8.109375 -12.171875 L 16.46875 -12.171875 C 16.269531 -13.253906 15.800781 -14.109375 15.0625 -14.734375 C 14.320312 -15.367188 13.398438 -15.6875 12.296875 -15.6875 Z M 12.296875 -15.6875 "/></g></g></g><g fill="#3da0ad" fill-opacity="1"><g transform="translate(219.369817, 171.916592)"><g><path d="M 15.15625 -20.78125 C 17.019531 -20.78125 18.710938 -20.34375 20.234375 -19.46875 C 21.753906 -18.601562 22.957031 -17.375 23.84375 -15.78125 C 24.738281 -14.1875 25.1875 -12.332031 25.1875 -10.21875 C 25.1875 -8.101562 24.738281 -6.25 23.84375 -4.65625 C 22.957031 -3.0625 21.753906 -1.828125 20.234375 -0.953125 C 18.710938 -0.0859375 17.019531 0.34375 15.15625 0.34375 C 12.769531 0.34375 10.875 -0.375 9.46875 -1.8125 L 9.46875 7.3125 L 2.296875 7.3125 L 2.296875 -20.4375 L 9.125 -20.4375 L 9.125 -18.40625 C 10.457031 -19.988281 12.46875 -20.78125 15.15625 -20.78125 Z M 13.65625 -5.359375 C 14.90625 -5.359375 15.929688 -5.789062 16.734375 -6.65625 C 17.546875 -7.519531 17.953125 -8.707031 17.953125 -10.21875 C 17.953125 -11.726562 17.546875 -12.914062 16.734375 -13.78125 C 15.929688 -14.644531 14.90625 -15.078125 13.65625 -15.078125 C 12.394531 -15.078125 11.359375 -14.644531 10.546875 -13.78125 C 9.742188 -12.914062 9.34375 -11.726562 9.34375 -10.21875 C 9.34375 -8.707031 9.742188 -7.519531 10.546875 -6.65625 C 11.359375 -5.789062 12.394531 -5.359375 13.65625 -5.359375 Z M 13.65625 -5.359375 "/></g></g></g><g fill="#3da0ad" fill-opacity="1"><g transform="translate(244.623624, 171.916592)"><g><path d="M 16.40625 -0.828125 C 15.800781 -0.453125 15.0625 -0.164062 14.1875 0.03125 C 13.320312 0.238281 12.398438 0.34375 11.421875 0.34375 C 8.753906 0.34375 6.703125 -0.304688 5.265625 -1.609375 C 3.835938 -2.921875 3.125 -4.875 3.125 -7.46875 L 3.125 -14.328125 L 0.15625 -14.328125 L 0.15625 -19.6875 L 3.125 -19.6875 L 3.125 -25 L 10.296875 -25 L 10.296875 -19.6875 L 14.96875 -19.6875 L 14.96875 -14.328125 L 10.296875 -14.328125 L 10.296875 -7.546875 C 10.296875 -6.816406 10.488281 -6.242188 10.875 -5.828125 C 11.269531 -5.410156 11.789062 -5.203125 12.4375 -5.203125 C 13.269531 -5.203125 14 -5.414062 14.625 -5.84375 Z M 16.40625 -0.828125 "/></g></g></g><g fill="#3da0ad" fill-opacity="1"><g transform="translate(260.529692, 171.916592)"><g><path d="M 2.296875 -20.4375 L 9.46875 -20.4375 L 9.46875 0 L 2.296875 0 Z M 5.875 -22.703125 C 4.570312 -22.703125 3.515625 -23.066406 2.703125 -23.796875 C 1.898438 -24.523438 1.5 -25.425781 1.5 -26.5 C 1.5 -27.582031 1.898438 -28.488281 2.703125 -29.21875 C 3.515625 -29.945312 4.570312 -30.3125 5.875 -30.3125 C 7.1875 -30.3125 8.242188 -29.960938 9.046875 -29.265625 C 9.847656 -28.578125 10.25 -27.695312 10.25 -26.625 C 10.25 -25.488281 9.847656 -24.550781 9.046875 -23.8125 C 8.242188 -23.070312 7.1875 -22.703125 5.875 -22.703125 Z M 5.875 -22.703125 "/></g></g></g><g fill="#3da0ad" fill-opacity="1"><g transform="translate(271.384968, 171.916592)"><g><path d="M 23.90625 -20.4375 L 23.90625 7.3125 L 16.734375 7.3125 L 16.734375 -1.8125 C 15.359375 -0.375 13.460938 0.34375 11.046875 0.34375 C 9.179688 0.34375 7.488281 -0.0859375 5.96875 -0.953125 C 4.445312 -1.828125 3.238281 -3.0625 2.34375 -4.65625 C 1.457031 -6.25 1.015625 -8.101562 1.015625 -10.21875 C 1.015625 -12.332031 1.457031 -14.1875 2.34375 -15.78125 C 3.238281 -17.375 4.445312 -18.601562 5.96875 -19.46875 C 7.488281 -20.34375 9.179688 -20.78125 11.046875 -20.78125 C 13.734375 -20.78125 15.742188 -19.988281 17.078125 -18.40625 L 17.078125 -20.4375 Z M 12.5625 -5.359375 C 13.8125 -5.359375 14.835938 -5.789062 15.640625 -6.65625 C 16.453125 -7.519531 16.859375 -8.707031 16.859375 -10.21875 C 16.859375 -11.726562 16.453125 -12.914062 15.640625 -13.78125 C 14.835938 -14.644531 13.8125 -15.078125 12.5625 -15.078125 C 11.300781 -15.078125 10.265625 -14.644531 9.453125 -13.78125 C 8.648438 -12.914062 8.25 -11.726562 8.25 -10.21875 C 8.25 -8.707031 8.648438 -7.519531 9.453125 -6.65625 C 10.265625 -5.789062 11.300781 -5.359375 12.5625 -5.359375 Z M 12.5625 -5.359375 "/></g></g></g><g fill="#3da0ad" fill-opacity="1"><g transform="translate(296.638775, 171.916592)"><g><path d="M 23.796875 -20.4375 L 23.796875 0 L 16.96875 0 L 16.96875 -2.1875 C 16.207031 -1.351562 15.300781 -0.722656 14.25 -0.296875 C 13.195312 0.128906 12.078125 0.34375 10.890625 0.34375 C 8.253906 0.34375 6.148438 -0.429688 4.578125 -1.984375 C 3.003906 -3.546875 2.21875 -5.890625 2.21875 -9.015625 L 2.21875 -20.4375 L 9.390625 -20.4375 L 9.390625 -10.1875 C 9.390625 -8.644531 9.675781 -7.519531 10.25 -6.8125 C 10.832031 -6.113281 11.675781 -5.765625 12.78125 -5.765625 C 13.914062 -5.765625 14.835938 -6.160156 15.546875 -6.953125 C 16.265625 -7.742188 16.625 -8.957031 16.625 -10.59375 L 16.625 -20.4375 Z M 23.796875 -20.4375 "/></g></g></g><g fill="#3da0ad" fill-opacity="1"><g transform="translate(321.779518, 171.916592)"><g><path d="M 23.1875 -10.1875 C 23.1875 -10.132812 23.148438 -9.539062 23.078125 -8.40625 L 8.21875 -8.40625 C 8.519531 -7.351562 9.101562 -6.539062 9.96875 -5.96875 C 10.832031 -5.40625 11.921875 -5.125 13.234375 -5.125 C 14.210938 -5.125 15.0625 -5.257812 15.78125 -5.53125 C 16.5 -5.8125 17.222656 -6.269531 17.953125 -6.90625 L 21.71875 -2.984375 C 19.726562 -0.765625 16.820312 0.34375 13 0.34375 C 10.613281 0.34375 8.515625 -0.109375 6.703125 -1.015625 C 4.898438 -1.921875 3.5 -3.175781 2.5 -4.78125 C 1.507812 -6.394531 1.015625 -8.21875 1.015625 -10.25 C 1.015625 -12.257812 1.5 -14.0625 2.46875 -15.65625 C 3.4375 -17.257812 4.773438 -18.515625 6.484375 -19.421875 C 8.191406 -20.328125 10.113281 -20.78125 12.25 -20.78125 C 14.289062 -20.78125 16.140625 -20.359375 17.796875 -19.515625 C 19.453125 -18.671875 20.765625 -17.445312 21.734375 -15.84375 C 22.703125 -14.25 23.1875 -12.363281 23.1875 -10.1875 Z M 12.296875 -15.6875 C 11.179688 -15.6875 10.253906 -15.367188 9.515625 -14.734375 C 8.773438 -14.109375 8.304688 -13.253906 8.109375 -12.171875 L 16.46875 -12.171875 C 16.269531 -13.253906 15.800781 -14.109375 15.0625 -14.734375 C 14.320312 -15.367188 13.398438 -15.6875 12.296875 -15.6875 Z M 12.296875 -15.6875 "/></g></g></g></svg>