<svg width="256" height="180" viewBox="0 0 256 180" fill="none" xmlns="http://www.w3.org/2000/svg">
<g clip-path="url(#clip0_35_1136)">
<path d="M250.346 28.075C248.878 22.6486 246.013 17.7014 242.038 13.7263C238.063 9.75112 233.116 6.88661 227.69 5.418C207.824 0 127.87 0 127.87 0C127.87 0 47.9119 0.164 28.0459 5.582C22.6194 7.0507 17.6724 9.91536 13.6974 13.8907C9.72239 17.8661 6.85817 22.8134 5.38995 28.24C-0.619052 63.538 -2.95005 117.324 5.55495 151.21C7.02332 156.636 9.88761 161.584 13.8626 165.559C17.8376 169.534 22.7846 172.398 28.2109 173.867C48.0769 179.285 128.033 179.285 128.033 179.285C128.033 179.285 207.988 179.285 227.853 173.867C233.28 172.399 238.227 169.534 242.202 165.559C246.177 161.584 249.041 156.637 250.51 151.21C256.848 115.862 258.801 62.11 250.346 28.076V28.075Z" fill="#FF0000"/>
<path d="M102.421 128.06L168.749 89.642L102.421 51.224V128.06Z" fill="white"/>
</g>
<defs>
<clipPath id="clip0_35_1136">
<rect width="256" height="180" fill="white"/>
</clipPath>
</defs>
</svg>
